<svg width="32" height="33" viewBox="0 0 32 33" fill="none"
    xmlns="http://www.w3.org/2000/svg">
    <rect y="0.465332" width="32" height="32" rx="16" fill="white" fill-opacity="0.1"/>
    <g clip-path="url(#clip0_329_1690)">
        <path d="M19.143 8.57226V10.9294H17.7412C17.2293 10.9294 16.8841 11.0366 16.7055 11.2508C16.5269 11.4651 16.4376 11.7866 16.4376 12.2151V13.9026H19.0537L18.7055 16.5455H16.4376V23.3223H13.7055V16.5455H11.4287V13.9026H13.7055V11.9562C13.7055 10.8491 14.015 9.99042 14.6341 9.3803C15.2531 8.77018 16.0775 8.46512 17.1073 8.46512C17.9823 8.46512 18.6609 8.50084 19.143 8.57226Z" fill="white"/>
    </g>
    <defs>
        <clipPath id="clip0_329_1690">
            <rect width="9.16" height="16" fill="white" transform="matrix(1 0 0 -1 11.4199 24.4653)"/>
        </clipPath>
    </defs>
</svg>
