<svg width="32" height="33" viewBox="0 0 32 33" fill="none"
    xmlns="http://www.w3.org/2000/svg">
    <rect y="0.465332" width="32" height="32" rx="16" fill="white" fill-opacity="0.1"/>
    <g clip-path="url(#clip0_329_1699)">
        <path d="M17.6158 18.0812C17.6158 18.0812 17.7274 17.9696 17.9506 17.7464C18.1738 17.5232 18.2854 17.0961 18.2854 16.4651C18.2854 15.8342 18.0622 15.2955 17.6158 14.8491C17.1694 14.4026 16.6307 14.1794 15.9997 14.1794C15.3688 14.1794 14.8301 14.4026 14.3836 14.8491C13.9372 15.2955 13.714 15.8342 13.714 16.4651C13.714 17.0961 13.9372 17.6348 14.3836 18.0812C14.8301 18.5276 15.3688 18.7508 15.9997 18.7508C16.6307 18.7508 17.1694 18.5276 17.6158 18.0812ZM18.4908 13.9741C18.4908 13.9741 18.6619 14.1452 19.0042 14.4874C19.3464 14.8297 19.5176 15.4889 19.5176 16.4651C19.5176 17.4413 19.1753 18.2717 18.4908 18.9562C17.8063 19.6407 16.9759 19.983 15.9997 19.983C15.0235 19.983 14.1932 19.6407 13.5086 18.9562C12.8241 18.2717 12.4819 17.4413 12.4819 16.4651C12.4819 15.4889 12.8241 14.6586 13.5086 13.9741C14.1932 13.2895 15.0235 12.9473 15.9997 12.9473C16.9759 12.9473 17.8063 13.2895 18.4908 13.9741ZM20.2408 12.2241C20.2408 12.2241 20.281 12.2642 20.3613 12.3446C20.4417 12.4249 20.4819 12.5782 20.4819 12.8044C20.4819 13.0306 20.4015 13.2241 20.2408 13.3848C20.0801 13.5455 19.8866 13.6258 19.6604 13.6258C19.4342 13.6258 19.2408 13.5455 19.0801 13.3848C18.9194 13.2241 18.839 13.0306 18.839 12.8044C18.839 12.5782 18.9194 12.3848 19.0801 12.2241C19.2408 12.0633 19.4342 11.983 19.6604 11.983C19.8866 11.983 20.0801 12.0633 20.2408 12.2241ZM16.6828 10.8357C16.6828 10.8357 16.5793 10.8364 16.3725 10.8379C16.1656 10.8394 16.0414 10.8401 15.9997 10.8401C15.9581 10.8401 15.7304 10.8386 15.3167 10.8357C14.903 10.8327 14.589 10.8327 14.3747 10.8357C14.1604 10.8386 13.8732 10.8476 13.5131 10.8624C13.153 10.8773 12.8464 10.9071 12.5935 10.9517C12.3405 10.9964 12.1277 11.0514 11.9551 11.1169C11.6575 11.236 11.3956 11.4086 11.1694 11.6348C10.9432 11.861 10.7706 12.1229 10.6515 12.4205C10.586 12.5931 10.531 12.8059 10.4863 13.0589C10.4417 13.3118 10.4119 13.6184 10.397 13.9785C10.3822 14.3386 10.3732 14.6258 10.3703 14.8401C10.3673 15.0544 10.3673 15.3684 10.3703 15.7821C10.3732 16.1958 10.3747 16.4235 10.3747 16.4651C10.3747 16.5068 10.3732 16.7345 10.3703 17.1482C10.3673 17.5618 10.3673 17.8758 10.3703 18.0901C10.3732 18.3044 10.3822 18.5916 10.397 18.9517C10.4119 19.3118 10.4417 19.6184 10.4863 19.8714C10.531 20.1243 10.586 20.3371 10.6515 20.5098C10.7706 20.8074 10.9432 21.0693 11.1694 21.2955C11.3956 21.5217 11.6575 21.6943 11.9551 21.8133C12.1277 21.8788 12.3405 21.9339 12.5935 21.9785C12.8464 22.0232 13.153 22.0529 13.5131 22.0678C13.8732 22.0827 14.1604 22.0916 14.3747 22.0946C14.589 22.0976 14.903 22.0976 15.3167 22.0946C15.7304 22.0916 15.9581 22.0901 15.9997 22.0901C16.0414 22.0901 16.2691 22.0916 16.6828 22.0946C17.0964 22.0976 17.4104 22.0976 17.6247 22.0946C17.839 22.0916 18.1262 22.0827 18.4863 22.0678C18.8464 22.0529 19.153 22.0232 19.406 21.9785C19.6589 21.9339 19.8717 21.8788 20.0444 21.8133C20.342 21.6943 20.6039 21.5217 20.8301 21.2955C21.0563 21.0693 21.2289 20.8074 21.3479 20.5098C21.4134 20.3371 21.4685 20.1243 21.5131 19.8714C21.5578 19.6184 21.5875 19.3118 21.6024 18.9517C21.6173 18.5916 21.6262 18.3044 21.6292 18.0901C21.6322 17.8758 21.6322 17.5618 21.6292 17.1482C21.6262 16.7345 21.6247 16.5068 21.6247 16.4651C21.6247 16.4235 21.6262 16.1958 21.6292 15.7821C21.6322 15.3684 21.6322 15.0544 21.6292 14.8401C21.6262 14.6258 21.6173 14.3386 21.6024 13.9785C21.5875 13.6184 21.5578 13.3118 21.5131 13.0589C21.4685 12.8059 21.4134 12.5931 21.3479 12.4205C21.2289 12.1229 21.0563 11.861 20.8301 11.6348C20.6039 11.4086 20.342 11.236 20.0444 11.1169C19.8717 11.0514 19.6589 10.9964 19.406 10.9517C19.153 10.9071 18.8464 10.8773 18.4863 10.8624C18.1262 10.8476 17.839 10.8386 17.6247 10.8357C17.4104 10.8327 17.0964 10.8327 16.6828 10.8357ZM22.8122 13.6348C22.842 14.1586 22.8569 15.102 22.8569 16.4651C22.8569 17.8282 22.842 18.7717 22.8122 19.2955C22.7527 20.5336 22.3836 21.4919 21.7051 22.1705C21.0265 22.8491 20.0682 23.2181 18.8301 23.2776C18.3063 23.3074 17.3628 23.3223 15.9997 23.3223C14.6366 23.3223 13.6932 23.3074 13.1694 23.2776C11.9313 23.2181 10.9729 22.8491 10.2944 22.1705C9.61579 21.4919 9.24674 20.5336 9.18722 19.2955C9.15746 18.7717 9.14258 17.8282 9.14258 16.4651C9.14258 15.102 9.15746 14.1586 9.18722 13.6348C9.24674 12.3967 9.61579 11.4383 10.2944 10.7598C10.9729 10.0812 11.9313 9.71215 13.1694 9.65262C13.6932 9.62286 14.6366 9.60798 15.9997 9.60798C17.3628 9.60798 18.3063 9.62286 18.8301 9.65262C20.0682 9.71215 21.0265 10.0812 21.7051 10.7598C22.3836 11.4383 22.7527 12.3967 22.8122 13.6348Z" fill="white"/>
    </g>
    <defs>
        <clipPath id="clip0_329_1699">
            <rect width="13.72" height="16" fill="white" transform="matrix(1 0 0 -1 9.13965 24.4653)"/>
        </clipPath>
    </defs>
</svg>
