<svg width="32" height="33" viewBox="0 0 32 33" fill="none"
    xmlns="http://www.w3.org/2000/svg">
    <rect y="0.465332" width="32" height="32" rx="16" fill="white" fill-opacity="0.1"/>
    <g clip-path="url(#clip0_329_1687)">
        <path d="M12.2586 14.0458V22.894H9.31222V14.0458H12.2586ZM12.4461 11.3137C12.4521 11.7482 12.3018 12.1113 11.9953 12.403C11.6887 12.6946 11.2854 12.8405 10.7854 12.8405H10.7676C10.2795 12.8405 9.88663 12.6946 9.58901 12.403C9.29139 12.1113 9.14258 11.7482 9.14258 11.3137C9.14258 10.8732 9.29585 10.5086 9.6024 10.2199C9.90895 9.93124 10.3092 9.7869 10.8033 9.7869C11.2973 9.7869 11.6932 9.93124 11.9908 10.2199C12.2884 10.5086 12.4402 10.8732 12.4461 11.3137ZM22.8569 17.8226V22.894H19.9194V18.1619C19.9194 17.5369 19.7988 17.0473 19.5578 16.6932C19.3167 16.339 18.9402 16.1619 18.4283 16.1619C18.0533 16.1619 17.7393 16.2646 17.4863 16.4699C17.2334 16.6753 17.0444 16.9298 16.9194 17.2333C16.8539 17.4119 16.8211 17.653 16.8211 17.9565V22.894H13.8836C13.8956 20.519 13.9015 18.5934 13.9015 17.1173C13.9015 15.6411 13.8985 14.7601 13.8926 14.4744L13.8836 14.0458H16.8211V15.3315H16.8033C16.9223 15.1411 17.0444 14.9744 17.1694 14.8315C17.2944 14.6887 17.4625 14.5339 17.6738 14.3673C17.8851 14.2006 18.1441 14.0711 18.4506 13.9789C18.7572 13.8866 19.0979 13.8405 19.4729 13.8405C20.4908 13.8405 21.3092 14.1783 21.9283 14.8539C22.5473 15.5295 22.8569 16.519 22.8569 17.8226Z" fill="white"/>
    </g>
    <defs>
        <clipPath id="clip0_329_1687">
            <rect width="13.72" height="16" fill="white" transform="matrix(1 0 0 -1 9.13965 24.4653)"/>
        </clipPath>
    </defs>
</svg>
