<svg width="98" height="32" viewBox="0 0 98 32" fill="none" xmlns="http://www.w3.org/2000/svg">
<g clip-path="url(#clip0_127_2862)">
<path d="M18.1267 28.8935C19.0257 28.5678 19.8055 27.9785 20.3643 27.2026C20.9231 26.4267 21.2348 25.5003 21.2588 24.5444C21.2548 23.877 21.097 23.2195 20.7977 22.6229L16.9546 24.0128C17.427 24.4488 17.8028 24.9791 18.0577 25.5693C18.3125 26.1596 18.4408 26.7967 18.4342 27.4396C18.4518 27.953 18.344 28.463 18.1203 28.9255L18.1267 28.8935ZM8.32689 5.20096L8.63434 5.39952C8.55856 5.06179 8.50507 4.71945 8.47421 4.3747L8.41016 3.79183C9.09356 3.50686 9.82239 3.34634 10.5623 3.31785C10.7116 3.30506 10.8619 3.32515 11.0026 3.37673C11.1432 3.4283 11.2709 3.5101 11.3766 3.61636C11.4822 3.72262 11.5633 3.85076 11.614 3.99174C11.6648 4.13273 11.684 4.28313 11.6704 4.43235C11.6672 4.86145 11.5282 5.27852 11.2732 5.6237L11.6383 5.502C11.819 5.15964 11.9197 4.78079 11.933 4.39392C11.9447 4.21175 11.9161 4.02925 11.8492 3.85939C11.7824 3.68952 11.6789 3.53648 11.5462 3.41112C11.4136 3.28577 11.2549 3.19119 11.0815 3.13411C10.9081 3.07703 10.7243 3.05885 10.5431 3.08086C9.722 3.1375 8.91535 3.32565 8.15395 3.63811L8.32689 5.20096ZM7.18678 3.63811C6.42538 3.32565 5.61874 3.1375 4.79767 3.08086C4.61779 3.06544 4.43668 3.08822 4.26621 3.1477C4.09575 3.20718 3.93979 3.30202 3.80855 3.42601C3.67731 3.54999 3.57376 3.70031 3.50469 3.86712C3.43561 4.03392 3.40258 4.21345 3.40776 4.39392C3.41482 4.78168 3.51593 5.16194 3.70239 5.502L4.06748 5.6237C3.81096 5.26962 3.67206 4.84396 3.67037 4.40673C3.6584 4.25903 3.679 4.11051 3.73074 3.97165C3.78247 3.8328 3.86406 3.707 3.96976 3.60314C4.07545 3.49928 4.20265 3.4199 4.34239 3.37061C4.48213 3.32131 4.63099 3.3033 4.77845 3.31785C5.51843 3.34566 6.24738 3.5062 6.93057 3.79183L6.86652 4.3747C6.83566 4.71945 6.78217 5.06179 6.7064 5.39952L7.04587 5.20096L7.2188 3.63811H7.18678ZM12.6439 5.23939C12.6439 5.18745 12.6285 5.13668 12.5997 5.09349C12.5708 5.05031 12.5298 5.01665 12.4818 4.99677C12.4338 4.9769 12.381 4.97169 12.3301 4.98183C12.2792 4.99196 12.2324 5.01697 12.1956 5.0537C12.1589 5.09042 12.1339 5.13722 12.1238 5.18816C12.1136 5.2391 12.1188 5.2919 12.1387 5.33989C12.1586 5.38787 12.1923 5.42889 12.2354 5.45774C12.2786 5.4866 12.3294 5.502 12.3813 5.502C12.4505 5.50037 12.5163 5.47218 12.5652 5.42328C12.6141 5.37438 12.6423 5.30853 12.6439 5.23939ZM7.41096 3.16413C7.41102 3.21551 7.42615 3.26575 7.45448 3.30861C7.48281 3.35148 7.52309 3.38509 7.57033 3.40529C7.61758 3.42548 7.66971 3.43138 7.72027 3.42224C7.77083 3.4131 7.8176 3.38934 7.85479 3.35388C7.89198 3.31842 7.91794 3.27284 7.92948 3.22277C7.94101 3.1727 7.9376 3.12035 7.91968 3.07219C7.90175 3.02404 7.87009 2.98221 7.82862 2.95187C7.78716 2.92153 7.7377 2.90403 7.68638 2.90152C7.61724 2.90315 7.55139 2.93134 7.50249 2.98024C7.45359 3.02914 7.4254 3.09499 7.42377 3.16413H7.41096ZM8.75603 2.92074C8.75603 2.8688 8.74063 2.81802 8.71178 2.77484C8.68292 2.73165 8.64191 2.69799 8.59392 2.67812C8.54594 2.65824 8.49313 2.65304 8.44219 2.66317C8.39125 2.67331 8.34446 2.69832 8.30773 2.73504C8.271 2.77177 8.24599 2.81856 8.23586 2.8695C8.22573 2.92045 8.23093 2.97325 8.2508 3.02123C8.27068 3.06922 8.30434 3.11023 8.34753 3.13909C8.39071 3.16794 8.44149 3.18335 8.49342 3.18335C8.56256 3.18172 8.62842 3.15353 8.67732 3.10463C8.72622 3.05573 8.75441 2.98987 8.75603 2.92074ZM9.56308 2.71577C9.56308 2.66383 9.54768 2.61306 9.51882 2.56987C9.48997 2.52669 9.44895 2.49303 9.40097 2.47315C9.35298 2.45328 9.30018 2.44808 9.24924 2.45821C9.1983 2.46834 9.1515 2.49335 9.11478 2.53008C9.07805 2.56681 9.05304 2.6136 9.04291 2.66454C9.03277 2.71548 9.03797 2.76828 9.05785 2.81627C9.07773 2.86425 9.11139 2.90527 9.15457 2.93412C9.19776 2.96298 9.24853 2.97838 9.30047 2.97838C9.36961 2.97676 9.43546 2.94857 9.48436 2.89966C9.53326 2.85076 9.56145 2.78491 9.56308 2.71577ZM10.3893 2.56205C10.3893 2.51011 10.3739 2.45934 10.3451 2.41615C10.3162 2.37297 10.2752 2.33931 10.2272 2.31943C10.1792 2.29955 10.1264 2.29435 10.0755 2.30449C10.0246 2.31462 9.97776 2.33963 9.94104 2.37636C9.90431 2.41308 9.8793 2.45988 9.86917 2.51082C9.85903 2.56176 9.86423 2.61456 9.88411 2.66255C9.90399 2.71053 9.93765 2.75155 9.98083 2.7804C10.024 2.80926 10.0748 2.82466 10.1267 2.82466C10.1959 2.82303 10.2617 2.79484 10.3106 2.74594C10.3595 2.69704 10.3877 2.63119 10.3893 2.56205ZM11.254 2.56205C11.254 2.51011 11.2386 2.45934 11.2098 2.41615C11.1809 2.37297 11.1399 2.33931 11.0919 2.31943C11.0439 2.29955 10.9911 2.29435 10.9402 2.30449C10.8892 2.31462 10.8425 2.33963 10.8057 2.37636C10.769 2.41308 10.744 2.45988 10.7339 2.51082C10.7237 2.56176 10.7289 2.61456 10.7488 2.66255C10.7687 2.71053 10.8023 2.75155 10.8455 2.7804C10.8887 2.80926 10.9395 2.82466 10.9914 2.82466C11.0606 2.82303 11.1264 2.79484 11.1753 2.74594C11.2242 2.69704 11.2524 2.63119 11.254 2.56205ZM12.0611 2.83747C12.0611 2.78553 12.0457 2.73476 12.0168 2.69157C11.988 2.64839 11.947 2.61473 11.899 2.59485C11.851 2.57497 11.7982 2.56977 11.7472 2.57991C11.6963 2.59004 11.6495 2.61505 11.6128 2.65178C11.576 2.6885 11.551 2.7353 11.5409 2.78624C11.5308 2.83718 11.536 2.88998 11.5558 2.93797C11.5757 2.98595 11.6094 3.02697 11.6526 3.05582C11.6958 3.08468 11.7465 3.10008 11.7985 3.10008C11.8676 3.09845 11.9335 3.07026 11.9824 3.02136C12.0313 2.97246 12.0595 2.90661 12.0611 2.83747ZM12.6119 3.51641C12.6119 3.44676 12.5843 3.37997 12.535 3.33072C12.4858 3.28147 12.419 3.2538 12.3493 3.2538C12.2797 3.2538 12.2129 3.28147 12.1636 3.33072C12.1144 3.37997 12.0867 3.44676 12.0867 3.51641C12.0867 3.58606 12.1144 3.65286 12.1636 3.70211C12.2129 3.75136 12.2797 3.77902 12.3493 3.77902C12.419 3.77902 12.4858 3.75136 12.535 3.70211C12.5843 3.65286 12.6119 3.58606 12.6119 3.51641ZM12.8105 4.38751C12.8105 4.33557 12.7951 4.2848 12.7662 4.24161C12.7374 4.19843 12.6964 4.16477 12.6484 4.14489C12.6004 4.12501 12.5476 4.11981 12.4966 4.12995C12.4457 4.14008 12.3989 4.16509 12.3622 4.20182C12.3254 4.23854 12.3004 4.28534 12.2903 4.33628C12.2802 4.38722 12.2854 4.44002 12.3052 4.48801C12.3251 4.53599 12.3588 4.57701 12.402 4.60586C12.4452 4.63472 12.4959 4.65012 12.5479 4.65012C12.617 4.64849 12.6829 4.6203 12.7318 4.5714C12.7807 4.5225 12.8089 4.45665 12.8105 4.38751ZM7.9618 3.99039C7.9618 3.93845 7.9464 3.88768 7.91754 3.84449C7.88869 3.80131 7.84767 3.76765 7.79969 3.74777C7.7517 3.7279 7.6989 3.7227 7.64796 3.73283C7.59701 3.74296 7.55022 3.76797 7.5135 3.8047C7.47677 3.84143 7.45176 3.88822 7.44162 3.93916C7.43149 3.9901 7.43669 4.0429 7.45657 4.09089C7.47645 4.13887 7.5101 4.17989 7.55329 4.20874C7.59648 4.2376 7.64725 4.253 7.69919 4.253C7.76833 4.25137 7.83418 4.22319 7.88308 4.17428C7.93198 4.12538 7.96017 4.05953 7.9618 3.99039ZM7.9618 4.81665C7.9618 4.76471 7.9464 4.71394 7.91754 4.67075C7.88869 4.62757 7.84767 4.59391 7.79969 4.57403C7.7517 4.55416 7.6989 4.54896 7.64796 4.55909C7.59701 4.56922 7.55022 4.59423 7.5135 4.63096C7.47677 4.66769 7.45176 4.71448 7.44162 4.76542C7.43149 4.81636 7.43669 4.86916 7.45657 4.91715C7.47645 4.96514 7.5101 5.00615 7.55329 5.03501C7.59648 5.06386 7.64725 5.07926 7.69919 5.07926C7.76833 5.07764 7.83418 5.04945 7.88308 5.00055C7.93198 4.95164 7.96017 4.88579 7.9618 4.81665ZM2.72881 5.23939C2.72881 5.29133 2.74421 5.3421 2.77307 5.38529C2.80193 5.42848 2.84294 5.46213 2.89093 5.48201C2.93891 5.50189 2.99171 5.50709 3.04266 5.49696C3.0936 5.48682 3.14039 5.46181 3.17712 5.42508C3.21384 5.38836 3.23885 5.34157 3.24899 5.29062C3.25912 5.23968 3.25392 5.18688 3.23404 5.1389C3.21417 5.09091 3.18051 5.0499 3.13732 5.02104C3.09414 4.99218 3.04336 4.97678 2.99142 4.97678C2.92229 4.97841 2.85643 5.0066 2.80753 5.0555C2.75863 5.1044 2.73044 5.17025 2.72881 5.23939ZM6.61672 2.92074C6.61448 2.98868 6.63745 3.05505 6.6812 3.10708C6.72495 3.1591 6.78639 3.19311 6.85371 3.20256C6.92336 3.20256 6.99016 3.17489 7.03941 3.12565C7.08865 3.0764 7.11632 3.0096 7.11632 2.93995C7.11632 2.8703 7.08865 2.80351 7.03941 2.75426C6.99016 2.70501 6.92336 2.67734 6.85371 2.67734C6.78507 2.68047 6.72007 2.70914 6.67149 2.75773C6.6229 2.80631 6.59423 2.87131 6.5911 2.93995L6.61672 2.92074ZM5.76484 2.71577C5.76484 2.76771 5.78024 2.81849 5.8091 2.86167C5.83796 2.90486 5.87897 2.93852 5.92695 2.95839C5.97494 2.97827 6.02774 2.98347 6.07868 2.97334C6.12963 2.9632 6.17642 2.93819 6.21315 2.90147C6.24987 2.86474 6.27488 2.81795 6.28502 2.76701C6.29515 2.71606 6.28995 2.66326 6.27007 2.61528C6.2502 2.56729 6.21654 2.52628 6.17335 2.49742C6.13016 2.46856 6.07939 2.45316 6.02745 2.45316C5.95831 2.45479 5.89246 2.48298 5.84356 2.53188C5.79466 2.58078 5.76647 2.64664 5.76484 2.71577ZM4.9578 2.56205C4.9578 2.61399 4.9732 2.66476 5.00205 2.70795C5.03091 2.75113 5.07192 2.78479 5.11991 2.80467C5.1679 2.82455 5.2207 2.82975 5.27164 2.81961C5.32258 2.80948 5.36937 2.78447 5.4061 2.74774C5.44283 2.71102 5.46784 2.66422 5.47797 2.61328C5.4881 2.56234 5.4829 2.50954 5.46303 2.46155C5.44315 2.41357 5.40949 2.37255 5.3663 2.3437C5.32312 2.31484 5.27235 2.29944 5.22041 2.29944C5.15127 2.30107 5.08541 2.32926 5.03651 2.37816C4.98761 2.42706 4.95942 2.49291 4.9578 2.56205ZM4.0931 2.56205C4.09473 2.63119 4.12292 2.69704 4.17182 2.74594C4.22072 2.79484 4.28658 2.82303 4.35571 2.82466C4.42536 2.82466 4.49216 2.79699 4.54141 2.74774C4.59066 2.69849 4.61832 2.6317 4.61832 2.56205C4.61832 2.4924 4.59066 2.42561 4.54141 2.37636C4.49216 2.32711 4.42536 2.29944 4.35571 2.29944C4.28658 2.30107 4.22072 2.32926 4.17182 2.37816C4.12292 2.42706 4.09473 2.49291 4.0931 2.56205ZM3.28606 2.81825C3.28479 2.87045 3.2991 2.92184 3.32717 2.96586C3.35524 3.00988 3.39579 3.04453 3.44365 3.06539C3.49151 3.08626 3.54451 3.09238 3.59586 3.08298C3.64722 3.07358 3.69461 3.04909 3.73198 3.01263C3.76935 2.97617 3.795 2.9294 3.80567 2.87829C3.81633 2.82719 3.81152 2.77406 3.79184 2.7257C3.77217 2.67734 3.73852 2.63594 3.69521 2.60679C3.6519 2.57764 3.60088 2.56207 3.54867 2.56205C3.47953 2.56368 3.41368 2.59187 3.36478 2.64077C3.31588 2.68967 3.28769 2.75552 3.28606 2.82466V2.81825ZM2.73522 3.4972C2.73522 3.56685 2.76289 3.63364 2.81213 3.68289C2.86138 3.73214 2.92818 3.75981 2.99783 3.75981C3.06748 3.75981 3.13427 3.73214 3.18352 3.68289C3.23277 3.63364 3.26044 3.56685 3.26044 3.4972C3.26044 3.42755 3.23277 3.36075 3.18352 3.3115C3.13427 3.26226 3.06748 3.23459 2.99783 3.23459C2.92818 3.23459 2.86138 3.26226 2.81213 3.3115C2.76289 3.36075 2.73522 3.42755 2.73522 3.4972ZM2.56228 4.38751C2.56228 4.43945 2.57768 4.49022 2.60654 4.53341C2.63539 4.57659 2.67641 4.61025 2.72439 4.63013C2.77238 4.65001 2.82518 4.65521 2.87612 4.64507C2.92706 4.63494 2.97386 4.60993 3.01058 4.5732C3.04731 4.53648 3.07232 4.48968 3.08245 4.43874C3.09259 4.3878 3.08739 4.335 3.06751 4.28701C3.04763 4.23903 3.01397 4.19801 2.97079 4.16916C2.9276 4.1403 2.87683 4.1249 2.82489 4.1249C2.75575 4.12653 2.6899 4.15472 2.641 4.20362C2.5921 4.25252 2.56391 4.31837 2.56228 4.38751ZM8.49342 0.819856C8.39094 0.678943 8.32689 0.640512 8.2116 0.640512L7.95539 0.704564C7.96359 0.733892 7.96359 0.764907 7.95539 0.794235C7.96274 0.821505 7.96274 0.850232 7.95539 0.877502L8.218 0.941553C8.3333 0.941553 8.39094 0.941553 8.49342 0.794235V0.819856ZM6.86652 0.819856C6.96901 0.947958 7.02665 0.992794 7.14194 0.967174L7.40455 0.903122C7.39721 0.875853 7.39721 0.847126 7.40455 0.819856C7.39635 0.790528 7.39635 0.759512 7.40455 0.730184L7.14835 0.666133C7.03306 0.666133 6.96901 0.666133 6.86652 0.819856ZM7.68638 1.64612C7.80167 1.56926 7.84651 1.5052 7.84651 1.42834C7.8523 1.39013 7.8523 1.35126 7.84651 1.31305L7.78886 1.08887C7.76288 1.10136 7.73442 1.10785 7.70559 1.10785C7.67677 1.10785 7.64831 1.10136 7.62233 1.08887L7.56468 1.31305C7.55888 1.35126 7.55888 1.39013 7.56468 1.42834C7.56468 1.5052 7.61592 1.56926 7.72481 1.64612H7.68638ZM7.16116 2.03683C7.16116 2.1058 7.17474 2.1741 7.20114 2.23782C7.22753 2.30155 7.26622 2.35945 7.31499 2.40822C7.41349 2.50671 7.54708 2.56205 7.68638 2.56205C7.75619 2.5629 7.82549 2.54998 7.89032 2.52404C7.95514 2.49811 8.01422 2.45965 8.06418 2.41088C8.11414 2.36211 8.15401 2.30397 8.1815 2.23979C8.20899 2.17561 8.22357 2.10665 8.22441 2.03683C8.22272 1.89525 8.16529 1.76004 8.06458 1.66052C7.96386 1.561 7.82797 1.50519 7.68638 1.5052C7.5465 1.50689 7.41291 1.56364 7.3146 1.66316C7.21628 1.76268 7.16115 1.89694 7.16116 2.03683ZM7.56468 0.819856C7.56468 0.852132 7.5775 0.883086 7.60033 0.905909C7.62315 0.928732 7.6541 0.941553 7.68638 0.941553C7.71866 0.941553 7.74961 0.928732 7.77243 0.905909C7.79525 0.883086 7.80808 0.852132 7.80808 0.819856C7.80808 0.78758 7.79525 0.756626 7.77243 0.733803C7.74961 0.71098 7.71866 0.698159 7.68638 0.698159C7.6541 0.698159 7.62315 0.71098 7.60033 0.733803C7.5775 0.756626 7.56468 0.78758 7.56468 0.819856ZM7.68638 0C7.55828 0.102482 7.50704 0.160128 7.53906 0.27542L7.60311 0.53803C7.62909 0.525538 7.65755 0.519052 7.68638 0.519052C7.71521 0.519052 7.74366 0.525538 7.76965 0.53803L7.8401 0.281825C7.8401 0.166533 7.8401 0.102482 7.68638 0ZM11.5871 8.32666C11.8589 7.50944 12.238 6.73191 12.7144 6.01441C12.5356 5.86298 12.3082 5.78111 12.0739 5.78383C11.7891 5.80235 11.5139 5.89402 11.2749 6.04998C11.0359 6.20594 10.8412 6.42092 10.7096 6.67414C10.7158 6.59526 10.7158 6.51602 10.7096 6.43715C10.7096 5.84788 10.447 5.502 9.97301 5.502C9.68077 5.52938 9.4068 5.65629 9.19693 5.8615C8.98706 6.0667 8.85403 6.33775 8.82009 6.6293C8.81623 6.32245 8.69778 6.02813 8.48802 5.80414C8.27825 5.58015 7.99232 5.44269 7.68638 5.41874C7.37309 5.43661 7.07831 5.57296 6.86184 5.80014C6.64536 6.02732 6.52339 6.32832 6.52065 6.64211C6.4867 6.35056 6.35367 6.07951 6.1438 5.87431C5.93393 5.6691 5.65996 5.54219 5.36772 5.51481C4.90015 5.51481 4.63754 5.86069 4.63754 6.44996C4.63754 6.52682 4.63754 6.60368 4.63754 6.68695C4.50536 6.43284 4.30965 6.21729 4.06945 6.06127C3.82924 5.90525 3.55274 5.81408 3.26684 5.79664C3.03205 5.79092 2.8036 5.87317 2.62633 6.02722C3.10569 6.74224 3.49305 7.5148 3.77925 8.32666H11.5871ZM7.92977 8.96717H11.5295V17.5821C11.5295 23.699 8.84571 26.2226 4.5863 27.3243C7.06508 25.9728 7.92977 23.6413 7.92977 20.0352V8.96717ZM7.4686 8.96717H3.8433V21.1369C3.8433 24.4291 3.20279 26.0368 2.35732 27.1257C1.74643 27.9651 0.9244 28.6281 -0.0253906 29.0472V29.1177C0.484971 29.0169 1.00447 28.9696 1.52465 28.9768C2.54947 28.9768 3.73442 29.1049 6.3349 29.9824L10.3893 31.3851C11.3801 31.7764 12.4311 31.9931 13.4958 32.0256C15.4174 32.0256 17.6143 30.6934 18.1267 28.9191C17.6737 29.3227 17.0802 29.532 16.4742 29.502C15.5514 29.4557 14.6386 29.2899 13.7584 29.0088L10.5559 28.1313C9.19394 27.6952 7.77722 27.4536 6.34771 27.4139C5.17673 27.4293 4.01242 27.5929 2.88254 27.9007C6.0851 26.8118 7.49423 24.3523 7.49423 20.2786V8.96717H7.4686Z" fill="white"/>
<path d="M32.2881 9.9856H33.71V15.6733H36.7653V16.9608H32.2881V9.9856Z" fill="white"/>
<path d="M37.6302 11.7278H39.0714V16.9608H37.6302V11.7278ZM37.4316 9.80627C37.4416 9.57576 37.542 9.35847 37.711 9.20143C37.8801 9.04439 38.1041 8.96024 38.3348 8.9672C38.4508 8.9672 38.5658 8.99006 38.673 9.03448C38.7803 9.0789 38.8777 9.14401 38.9598 9.22609C39.0419 9.30816 39.107 9.40561 39.1514 9.51285C39.1958 9.62009 39.2187 9.73503 39.2187 9.8511C39.2187 9.96718 39.1958 10.0821 39.1514 10.1894C39.107 10.2966 39.0419 10.394 38.9598 10.4761C38.8777 10.5582 38.7803 10.6233 38.673 10.6677C38.5658 10.7121 38.4508 10.735 38.3348 10.735C38.2174 10.7384 38.1005 10.7183 37.9911 10.6757C37.8816 10.6332 37.7819 10.5691 37.6976 10.4872C37.6134 10.4054 37.5465 10.3075 37.5008 10.1993C37.4551 10.0912 37.4316 9.97493 37.4316 9.85751V9.80627Z" fill="white"/>
<path d="M41.5826 13.8223H43.9589C43.9583 13.6776 43.9282 13.5346 43.8704 13.402C43.8126 13.2694 43.7284 13.15 43.6229 13.0511C43.5173 12.9521 43.3927 12.8758 43.2567 12.8267C43.1206 12.7776 42.976 12.7567 42.8316 12.7654C42.5273 12.7607 42.2314 12.8645 41.9966 13.0582C41.7619 13.2518 41.6038 13.5227 41.5506 13.8223H41.5826ZM45.2463 14.8279H41.5826C41.6625 15.1473 41.8547 15.4272 42.124 15.6166C42.3933 15.8059 42.7218 15.892 43.0494 15.8591C43.5821 15.8575 44.098 15.672 44.5097 15.3339L45.099 16.3075C44.519 16.8096 43.7781 17.0869 43.0109 17.0889C42.6411 17.1062 42.2717 17.0483 41.9249 16.9187C41.5782 16.789 41.2614 16.5903 40.9937 16.3346C40.726 16.0789 40.513 15.7715 40.3676 15.431C40.2222 15.0905 40.1474 14.7241 40.1478 14.3539C40.1417 13.99 40.2092 13.6287 40.3464 13.2916C40.4836 12.9545 40.6876 12.6487 40.9462 12.3925C41.2047 12.1364 41.5124 11.9352 41.8507 11.8012C42.1891 11.6671 42.5511 11.6029 42.9149 11.6125C43.2388 11.6011 43.5616 11.656 43.8635 11.7739C44.1654 11.8918 44.44 12.0703 44.6703 12.2983C44.9007 12.5262 45.082 12.7989 45.2031 13.0996C45.3242 13.4002 45.3825 13.7224 45.3744 14.0465C45.3719 14.3097 45.3396 14.5718 45.2784 14.8279H45.2463Z" fill="white"/>
<path d="M46.1621 14.341C46.1628 13.9764 46.2365 13.6156 46.3787 13.2799C46.5209 12.9441 46.7288 12.6402 46.9902 12.3859C47.2516 12.1317 47.5612 11.9323 47.9008 11.7995C48.2403 11.6667 48.603 11.6031 48.9676 11.6125C49.4271 11.5946 49.8826 11.705 50.283 11.9312C50.6835 12.1575 51.0131 12.4906 51.235 12.8935L50.2422 13.6621C50.1168 13.4317 49.9316 13.2394 49.7062 13.1052C49.4808 12.9711 49.2234 12.9002 48.9612 12.8999C48.7751 12.897 48.5905 12.9324 48.4187 13.0038C48.2469 13.0752 48.0917 13.1812 47.9625 13.3151C47.8334 13.4491 47.7332 13.6081 47.6681 13.7824C47.603 13.9567 47.5744 14.1424 47.584 14.3282C47.5725 14.5148 47.5998 14.7017 47.6641 14.8771C47.7285 15.0526 47.8285 15.2128 47.9579 15.3477C48.0873 15.4825 48.2433 15.589 48.416 15.6605C48.5887 15.732 48.7743 15.7669 48.9612 15.763C49.2214 15.76 49.4763 15.6894 49.7009 15.558C49.9255 15.4266 50.1121 15.239 50.2422 15.0136L51.2414 15.7886C51.0167 16.189 50.6865 16.5202 50.2867 16.7461C49.887 16.9719 49.4329 17.0838 48.974 17.0696C48.6081 17.0782 48.2442 17.0134 47.9037 16.879C47.5632 16.7447 47.2531 16.5436 46.9917 16.2875C46.7302 16.0314 46.5227 15.7255 46.3813 15.3879C46.2399 15.0503 46.1676 14.6878 46.1685 14.3218L46.1621 14.341Z" fill="white"/>
<path d="M57.0827 13.7198V16.9608H55.6608V13.9184C55.6717 13.7865 55.6546 13.6538 55.6105 13.5291C55.5664 13.4043 55.4963 13.2904 55.4049 13.1947C55.3135 13.0991 55.2028 13.0239 55.0802 12.9742C54.9576 12.9245 54.8258 12.9014 54.6936 12.9064C54.5601 12.9007 54.4269 12.9232 54.3026 12.9723C54.1783 13.0214 54.0657 13.0961 53.9721 13.1915C53.8785 13.2869 53.806 13.4009 53.7593 13.5261C53.7125 13.6513 53.6926 13.785 53.7008 13.9184V16.9608H52.2725V9.03766H53.7008V12.1698C53.8899 11.9843 54.1143 11.8388 54.3608 11.742C54.6073 11.6452 54.8708 11.599 55.1356 11.6061C55.4043 11.6049 55.6703 11.66 55.9165 11.768C56.1626 11.8759 56.3833 12.0343 56.5644 12.2329C56.7455 12.4315 56.8829 12.6659 56.9678 12.9209C57.0527 13.1759 57.0831 13.4459 57.0571 13.7134L57.0827 13.7198Z" fill="white"/>
<path d="M61.6683 15.7694V16.9608C61.3464 17.046 61.0149 17.0891 60.6819 17.0889C59.4009 17.0889 58.5938 16.4484 58.5938 15.1225V12.9383H57.7676V11.7278H58.5938V10.4083H60.0158V11.7278H61.489V12.9383H60.0158V14.9944C60.0158 15.5965 60.336 15.8078 60.9894 15.8078C61.1559 15.8078 61.3929 15.8078 61.6683 15.7694Z" fill="white"/>
<path d="M63.8338 13.8223H66.2101C66.2095 13.6776 66.1793 13.5346 66.1216 13.402C66.0638 13.2694 65.9796 13.15 65.874 13.0511C65.7685 12.9521 65.6439 12.8758 65.5078 12.8267C65.3718 12.7776 65.2271 12.7567 65.0828 12.7654C64.7785 12.7607 64.4825 12.8645 64.2478 13.0582C64.0131 13.2518 63.855 13.5227 63.8017 13.8223H63.8338ZM67.4975 14.8279H63.8338C63.9143 15.1533 64.1112 15.438 64.3874 15.628C64.6636 15.818 64.9999 15.9002 65.3326 15.8591C65.8653 15.8575 66.3812 15.672 66.7929 15.3339L67.3822 16.3075C66.8022 16.8096 66.0613 17.0869 65.2941 17.0889C64.9243 17.1062 64.5549 17.0483 64.2081 16.9187C63.8614 16.789 63.5445 16.5903 63.2769 16.3346C63.0092 16.0789 62.7962 15.7715 62.6508 15.431C62.5054 15.0905 62.4306 14.7241 62.431 14.3539C62.425 13.9928 62.4916 13.6341 62.6268 13.2992C62.762 12.9643 62.9631 12.66 63.2182 12.4043C63.4733 12.1486 63.7772 11.9467 64.1118 11.8107C64.4464 11.6747 64.8049 11.6073 65.166 11.6125C65.4899 11.6011 65.8128 11.656 66.1147 11.7739C66.4166 11.8918 66.6911 12.0703 66.9215 12.2983C67.1519 12.5262 67.3332 12.7989 67.4543 13.0996C67.5754 13.4002 67.6337 13.7224 67.6256 14.0465C67.623 14.3097 67.5908 14.5718 67.5295 14.8279H67.4975Z" fill="white"/>
<path d="M73.5436 13.7198V16.9608H72.1281V13.9055C72.1381 13.7734 72.1201 13.6406 72.0753 13.5158C72.0304 13.3911 71.9597 13.2772 71.8678 13.1817C71.7759 13.0861 71.6648 13.0111 71.5419 12.9614C71.419 12.9118 71.287 12.8886 71.1545 12.8935C71.021 12.8879 70.8878 12.9104 70.7635 12.9595C70.6392 13.0086 70.5266 13.0833 70.433 13.1787C70.3394 13.2741 70.2669 13.3881 70.2202 13.5133C70.1735 13.6385 70.1536 13.7722 70.1617 13.9055V16.9608H68.7334V11.7278H70.0144V12.2082C70.2173 12.0124 70.4572 11.8588 70.72 11.7566C70.9828 11.6543 71.2633 11.6053 71.5452 11.6125C71.8178 11.6049 72.0888 11.6553 72.3403 11.7604C72.5918 11.8656 72.8181 12.023 73.0041 12.2223C73.19 12.4217 73.3315 12.6583 73.419 12.9164C73.5065 13.1746 73.5381 13.4485 73.5116 13.7198H73.5436Z" fill="white"/>
<path d="M74.4346 16.0704L75.1519 15.2057C75.3348 15.4183 75.5593 15.591 75.8116 15.7133C76.0639 15.8356 76.3386 15.9048 76.6187 15.9167C76.9774 15.9167 77.2592 15.7758 77.2592 15.4812C77.2592 15.1865 77.0351 15.1417 76.7212 15.0072L76.1576 14.7766C75.2736 14.4115 74.7356 14.0016 74.7356 13.1753C74.7356 12.1761 75.5491 11.6125 76.6571 11.6125C77.0079 11.5989 77.3574 11.6617 77.6815 11.7967C78.0055 11.9316 78.2964 12.1354 78.5339 12.3939L77.8165 13.2714C77.5038 12.9822 77.0958 12.8181 76.67 12.8102C76.3305 12.8102 76.1127 12.9255 76.1127 13.1817C76.1127 13.4379 76.2792 13.4828 76.6636 13.6429L77.1696 13.8543C78.1111 14.2322 78.6363 14.6357 78.6363 15.4491C78.6363 16.5252 77.7396 17.1209 76.5995 17.1209C76.1841 17.1326 75.7717 17.0466 75.3957 16.8697C75.0196 16.6928 74.6904 16.43 74.4346 16.1025V16.0704Z" fill="white"/>
<path d="M83.1517 15.7694V16.9608C82.8319 17.0455 82.5025 17.0885 82.1717 17.0889C80.8907 17.0889 80.0772 16.4484 80.0772 15.1225V12.9383H79.251V11.7278H80.0644V10.4083H81.4928V11.7278H82.9723V12.9383H81.4928V14.9944C81.4928 15.5965 81.8066 15.8078 82.4599 15.8078C82.6329 15.8078 82.8635 15.8078 83.1389 15.7694H83.1517Z" fill="white"/>
<path d="M85.2588 13.8223H87.6351C87.6336 13.6773 87.6027 13.5342 87.5442 13.4016C87.4857 13.2689 87.4009 13.1496 87.2949 13.0507C87.1889 12.9519 87.0638 12.8756 86.9274 12.8266C86.791 12.7775 86.6461 12.7567 86.5014 12.7654C86.2038 12.7698 85.9169 12.8776 85.6901 13.0705C85.4634 13.2634 85.3109 13.5292 85.2588 13.8223ZM88.9225 14.8279H85.2588C85.3387 15.1473 85.5309 15.4272 85.8002 15.6166C86.0695 15.8059 86.398 15.892 86.7256 15.8591C87.2563 15.8571 87.77 15.6715 88.1795 15.3339L88.7752 16.3075C88.1936 16.8111 87.4501 17.0884 86.6808 17.0889C86.311 17.1062 85.9415 17.0483 85.5947 16.9186C85.248 16.789 84.9312 16.5903 84.6635 16.3346C84.3958 16.0788 84.1828 15.7714 84.0374 15.431C83.892 15.0905 83.8173 14.7241 83.8177 14.3539C83.8125 13.993 83.8797 13.6347 84.0152 13.3002C84.1507 12.9657 84.3519 12.6617 84.6068 12.4062C84.8617 12.1507 85.1653 11.9488 85.4994 11.8125C85.8336 11.6762 86.1917 11.6082 86.5526 11.6125C86.8771 11.6001 87.2006 11.6544 87.5033 11.7719C87.8059 11.8895 88.0813 12.0678 88.3123 12.2958C88.5434 12.5239 88.7253 12.7969 88.8468 13.098C88.9682 13.3991 89.0267 13.7219 89.0186 14.0464C89.0161 14.3097 88.9838 14.5718 88.9225 14.8279Z" fill="white"/>
<path d="M90.133 11.7278H91.5933V16.9608H90.165V11.7278H90.133ZM89.9344 9.80628C89.9267 9.62341 89.974 9.44243 90.0702 9.28669C90.1663 9.13095 90.3069 9.00759 90.4738 8.93252C90.6408 8.85745 90.8264 8.83411 91.0067 8.86551C91.187 8.89691 91.3538 8.98162 91.4855 9.1087C91.6172 9.23578 91.7078 9.39941 91.7457 9.57849C91.7835 9.75756 91.7668 9.94387 91.6978 10.1134C91.6288 10.2829 91.5105 10.4278 91.3583 10.5295C91.2061 10.6312 91.027 10.6849 90.8439 10.6838C90.7262 10.6872 90.6091 10.6671 90.4993 10.6246C90.3895 10.5821 90.2893 10.5181 90.2046 10.4364C90.1198 10.3546 90.0523 10.2568 90.0059 10.1486C89.9595 10.0404 89.9352 9.924 89.9344 9.80628Z" fill="white"/>
<path d="M97.7938 13.7198V16.9608H96.3783V13.9055C96.388 13.7761 96.3709 13.6461 96.3279 13.5236C96.285 13.4011 96.2172 13.2888 96.1287 13.1937C96.0403 13.0987 95.9332 13.023 95.8141 12.9713C95.695 12.9197 95.5666 12.8932 95.4368 12.8935C95.3032 12.8879 95.17 12.9104 95.0457 12.9595C94.9214 13.0086 94.8089 13.0833 94.7153 13.1787C94.6217 13.2741 94.5492 13.3881 94.5024 13.5133C94.4557 13.6385 94.4358 13.7722 94.444 13.9055V16.9608H93.0156V11.7278H94.3287V12.2082C94.5318 12.0126 94.7717 11.8593 95.0344 11.7571C95.2972 11.6548 95.5776 11.6057 95.8595 11.6125C96.132 11.6049 96.403 11.6553 96.6545 11.7604C96.906 11.8656 97.1323 12.023 97.3183 12.2223C97.5043 12.4217 97.6457 12.6583 97.7332 12.9164C97.8208 13.1746 97.8523 13.4485 97.8259 13.7198H97.7938Z" fill="white"/>
<path d="M39.1095 22.0336V29.1305H37.6876V25.4091L35.9326 27.6061H35.465L33.71 25.4091V29.1305H32.2881V22.0336H32.7493L35.6956 25.7998L38.6484 22.0336H39.1095Z" fill="white"/>
<path d="M43.4145 27.1769V27.1129H42.2744C41.8132 27.1129 41.5442 27.2922 41.5442 27.6381C41.5442 27.984 41.8517 28.2146 42.3 28.2146C42.4408 28.2215 42.5816 28.1998 42.7138 28.1509C42.846 28.1019 42.9669 28.0267 43.0693 27.9297C43.1716 27.8327 43.2533 27.7161 43.3093 27.5867C43.3654 27.4573 43.3946 27.3179 43.3953 27.1769H43.4145ZM44.8364 26.024V29.1305H43.5554V28.6245C43.3483 28.8357 43.0996 29.0017 42.8251 29.112C42.5506 29.2222 42.2562 29.2743 41.9605 29.265C40.8204 29.265 40.1543 28.5861 40.1543 27.7022C40.1543 26.8182 40.9229 26.1777 42.1271 26.1777H43.4081V25.9407C43.4189 25.8124 43.4008 25.6832 43.3549 25.5629C43.309 25.4425 43.2367 25.334 43.1431 25.2454C43.0496 25.1568 42.9374 25.0904 42.8147 25.0511C42.692 25.0118 42.5621 25.0006 42.4345 25.0184C42.1651 25.031 41.9017 25.1023 41.6627 25.2273C41.4237 25.3523 41.215 25.528 41.051 25.7422L40.3529 24.8647C40.6233 24.5202 40.97 24.2431 41.3657 24.0553C41.7613 23.8674 42.1952 23.774 42.6331 23.7822C42.9346 23.7535 43.2388 23.7917 43.5238 23.8942C43.8089 23.9967 44.0678 24.161 44.2819 24.3751C44.4961 24.5893 44.6604 24.8482 44.7629 25.1333C44.8654 25.4183 44.9036 25.7225 44.8749 26.024H44.8364Z" fill="white"/>
<path d="M49.2363 23.9039V25.1849H48.8584C48.6725 25.1658 48.4847 25.1875 48.308 25.2487C48.1314 25.3098 47.9704 25.4089 47.8361 25.5389C47.7018 25.6689 47.5976 25.8267 47.5308 26.0012C47.464 26.1757 47.4362 26.3628 47.4493 26.5492V29.1561H46.0273V23.9039H47.3084V24.5444C47.4804 24.3278 47.6997 24.1534 47.9495 24.0346C48.1993 23.9158 48.4729 23.8558 48.7495 23.8591C48.9057 23.8547 49.0616 23.8763 49.2107 23.9231L49.2363 23.9039Z" fill="white"/>
<path d="M53.5917 29.1305L51.4908 26.2354V29.1305H50.0625V21.2074H51.4908V26.1329L53.3675 23.8976H55.0585L53.0921 26.2162L55.2186 29.1305H53.5917Z" fill="white"/>
<path d="M56.8845 25.992H59.2608C59.2593 25.8471 59.2284 25.7039 59.1699 25.5713C59.1114 25.4387 59.0266 25.3193 58.9206 25.2205C58.8145 25.1216 58.6895 25.0454 58.5531 24.9963C58.4167 24.9473 58.2718 24.9265 58.1271 24.9352C57.8294 24.9395 57.5426 25.0474 57.3158 25.2402C57.089 25.4331 56.9365 25.6989 56.8845 25.992ZM60.5482 26.9976H56.8845C56.9644 27.317 57.1565 27.597 57.4259 27.7863C57.6952 27.9757 58.0237 28.0618 58.3512 28.0288C58.884 28.0272 59.3999 27.8417 59.8116 27.5036L60.4009 28.4772C59.8143 28.9851 59.0632 29.2628 58.2872 29.2586C57.9174 29.276 57.5479 29.2181 57.2012 29.0884C56.8544 28.9587 56.5376 28.76 56.2699 28.5043C56.0022 28.2486 55.7892 27.9412 55.6438 27.6007C55.4985 27.2603 55.4237 26.8938 55.4241 26.5236C55.4189 26.1622 55.4863 25.8034 55.6222 25.4685C55.7582 25.1335 55.9599 24.8292 56.2155 24.5736C56.4711 24.318 56.7754 24.1163 57.1103 23.9804C57.4453 23.8444 57.8041 23.7771 58.1655 23.7822C58.4894 23.7708 58.8122 23.8257 59.1141 23.9436C59.416 24.0616 59.6906 24.24 59.921 24.468C60.1514 24.696 60.3327 24.9687 60.4537 25.2693C60.5748 25.5699 60.6331 25.8922 60.6251 26.2162C60.6225 26.4795 60.5903 26.7416 60.529 26.9976H60.5482Z" fill="white"/>
<path d="M65.1273 27.9392V29.1305C64.8054 29.2158 64.4739 29.2588 64.1409 29.2586C62.8599 29.2586 62.0528 28.6181 62.0528 27.2922V25.1081H61.2266V23.9039H62.0528V22.5781H63.4812V23.9039H64.9543V25.1081H63.4812V27.1641C63.4812 27.7662 63.795 27.9776 64.4483 27.9776C64.6213 27.9776 64.8519 27.9776 65.1273 27.9392Z" fill="white"/>
<path d="M66.2033 23.9039H67.6316V29.1305H66.2033V23.9039ZM66.0047 21.9824C65.997 21.7995 66.0443 21.6185 66.1405 21.4628C66.2366 21.307 66.3772 21.1837 66.5442 21.1086C66.7111 21.0335 66.8967 21.0102 67.077 21.0416C67.2573 21.073 67.4241 21.1577 67.5558 21.2848C67.6875 21.4119 67.7781 21.5755 67.816 21.7546C67.8538 21.9336 67.8371 22.12 67.7681 22.2895C67.6991 22.459 67.5808 22.6039 67.4286 22.7056C67.2764 22.8072 67.0973 22.861 66.9142 22.8599C66.7966 22.8633 66.6794 22.8432 66.5696 22.8007C66.4598 22.7582 66.3596 22.6942 66.2749 22.6124C66.1902 22.5307 66.1226 22.4329 66.0762 22.3247C66.0298 22.2165 66.0055 22.1001 66.0047 21.9824Z" fill="white"/>
<path d="M73.8636 25.8895V29.1305H72.4481V26.0753C72.458 25.9437 72.4402 25.8114 72.3957 25.6871C72.3512 25.5628 72.2811 25.4493 72.1899 25.3539C72.0987 25.2584 71.9885 25.1833 71.8663 25.1332C71.7442 25.0831 71.6129 25.0593 71.4809 25.0633C71.3451 25.054 71.2088 25.0737 71.0811 25.1211C70.9534 25.1685 70.8372 25.2425 70.7403 25.3382C70.6434 25.4339 70.5679 25.5491 70.519 25.6762C70.47 25.8033 70.4485 25.9393 70.4561 26.0753V29.1305H69.0342V23.9039H70.3152V24.3779C70.5183 24.1824 70.7582 24.0291 71.021 23.9268C71.2837 23.8246 71.5642 23.7754 71.846 23.7823C72.1185 23.7746 72.3895 23.825 72.6411 23.9302C72.8926 24.0353 73.1188 24.1928 73.3048 24.3921C73.4908 24.5914 73.6323 24.828 73.7198 25.0862C73.8073 25.3444 73.8389 25.6182 73.8124 25.8895H73.8636Z" fill="white"/>
<path d="M79.0839 26.3507C79.0966 26.1718 79.0715 25.9922 79.0104 25.8236C78.9492 25.655 78.8534 25.5012 78.729 25.3719C78.6046 25.2427 78.4545 25.1411 78.2883 25.0736C78.1222 25.0061 77.9437 24.9742 77.7645 24.98C77.5832 24.9696 77.4017 24.9979 77.2322 25.063C77.0627 25.128 76.9089 25.2284 76.7811 25.3574C76.6533 25.4864 76.5544 25.6411 76.4909 25.8113C76.4274 25.9814 76.4009 26.1631 76.413 26.3443C76.4033 26.5267 76.4312 26.7092 76.4951 26.8804C76.5589 27.0515 76.6572 27.2077 76.784 27.3393C76.9107 27.4708 77.0632 27.5749 77.2318 27.6451C77.4005 27.7152 77.5818 27.7499 77.7645 27.747C77.9478 27.7536 78.1305 27.7206 78.3 27.6504C78.4695 27.5803 78.622 27.4745 78.7471 27.3403C78.8722 27.2061 78.9671 27.0465 79.0252 26.8725C79.0833 26.6984 79.1033 26.5139 79.0839 26.3315V26.3507ZM80.493 23.9039V28.5477C80.493 30.3155 79.3593 31.161 77.7901 31.161C76.8439 31.171 75.9288 30.8233 75.228 30.1874L75.9774 29.1946C76.4458 29.6126 77.0472 29.8509 77.6748 29.8671C78.4818 29.8671 79.0711 29.4764 79.0711 28.6309V28.3491C78.865 28.5616 78.6165 28.7284 78.3417 28.8388C78.067 28.9491 77.7721 29.0005 77.4762 28.9896C77.1402 28.9979 76.806 28.9369 76.4946 28.8103C76.1831 28.6837 75.9011 28.4943 75.6661 28.2539C75.4312 28.0135 75.2482 27.7273 75.1288 27.4131C75.0093 27.0988 74.9559 26.7634 74.9718 26.4276C74.9549 26.0915 75.0077 25.7556 75.1268 25.441C75.2459 25.1263 75.4288 24.8397 75.664 24.5991C75.8992 24.3585 76.1816 24.1691 76.4934 24.0429C76.8053 23.9167 77.1399 23.8563 77.4762 23.8655C77.8026 23.8475 78.1285 23.9085 78.4263 24.0435C78.724 24.1784 78.9848 24.3832 79.1864 24.6405V24L80.493 23.9039Z" fill="white"/>
</g>
<defs>
<clipPath id="clip0_127_2862">
<rect width="98" height="32" fill="white"/>
</clipPath>
</defs>
</svg>
