<svg width="143" height="42" viewBox="0 0 143 42" fill="none"
    xmlns="http://www.w3.org/2000/svg">
    <g clip-path="url(#clip0_302_1605)">
        <path d="M9.80861 11.7364H5.08666V27.7623C5.08666 32.0764 4.19869 34.1847 3.13809 35.6148C2.33829 36.7243 1.25753 37.6008 0.00683594 38.1544V38.2528C0.676316 38.1182 1.35836 38.0562 2.04114 38.0679C3.38535 38.0679 4.93854 38.2279 8.35341 39.3867L13.643 41.1739C14.9452 41.6834 16.326 41.963 17.7238 42.0005C20.25 42.0005 23.1236 40.2489 23.8015 37.9195C23.2069 38.4498 22.4274 38.7247 21.6317 38.6848C20.4213 38.6244 19.2237 38.4087 18.0683 38.0431L13.8271 36.8843C11.1517 36.1571 9.72173 35.9482 8.30365 35.9482C6.76569 35.9646 5.23631 36.1798 3.75355 36.5884C7.94655 35.1579 9.80861 31.9272 9.80861 26.5786V11.7364ZM10.4126 11.7364H15.1468V23.0773C15.1468 31.0906 11.6209 34.4185 6.02362 35.8594C9.27697 34.084 10.413 31.0271 10.413 26.2919L10.4126 11.7364ZM15.1969 10.9476C15.5561 9.8765 16.0535 8.8568 16.6766 7.91437C16.4519 7.71617 16.1622 7.60724 15.8625 7.60821C15.489 7.63293 15.1282 7.75368 14.815 7.95878C14.5019 8.16388 14.247 8.44637 14.0751 8.77889C14.0855 8.67552 14.0897 8.57162 14.0877 8.46775C14.0877 7.69164 13.7433 7.23508 13.1255 7.23508C12.4109 7.23508 11.7817 7.86347 11.6098 8.71459C11.5233 7.81717 10.9304 7.11377 10.0796 7.11377C9.22875 7.11377 8.63702 7.81602 8.55052 8.71651C8.3779 7.86539 7.74905 7.237 7.03408 7.237C6.41786 7.237 6.07262 7.69355 6.07262 8.46967C6.07076 8.57264 6.07498 8.67564 6.08525 8.77812C5.91335 8.44561 5.65849 8.16311 5.34533 7.95801C5.03218 7.75291 4.67136 7.63216 4.29782 7.60745C3.99808 7.60623 3.70835 7.71519 3.48371 7.91361C4.10696 8.85589 4.60428 9.87563 4.96303 10.9469L15.1969 10.9476ZM10.0796 0.000170902C9.90698 0.135646 9.84574 0.210272 9.8821 0.35761L9.9686 0.70204C10.0034 0.685828 10.0412 0.677426 10.0796 0.677426C10.1179 0.677426 10.1558 0.685828 10.1906 0.70204L10.2771 0.369091C10.3154 0.220987 10.2645 0.134499 10.0796 -0.000976562V0.000170902ZM9.91961 1.07173C9.91976 1.10333 9.92927 1.13418 9.94694 1.16039C9.96461 1.18659 9.98965 1.20698 10.0189 1.21897C10.0481 1.23096 10.0803 1.23402 10.1113 1.22776C10.1423 1.2215 10.1707 1.20621 10.193 1.18381C10.2153 1.1614 10.2305 1.1329 10.2366 1.10189C10.2427 1.07088 10.2395 1.03875 10.2273 1.00957C10.2152 0.980383 10.1947 0.955444 10.1684 0.9379C10.1421 0.920357 10.1112 0.910992 10.0796 0.910992C10.0372 0.911687 9.99684 0.928869 9.96697 0.958885C9.93709 0.9889 9.9201 1.02938 9.91961 1.07173ZM9.38951 2.67447C9.38951 2.85716 9.46209 3.03238 9.59129 3.16156C9.72049 3.29075 9.89573 3.36332 10.0784 3.36332C10.2626 3.36405 10.4397 3.29213 10.5712 3.16317C10.7026 3.03421 10.778 2.85861 10.7808 2.67447C10.779 2.4887 10.7045 2.31104 10.5731 2.17961C10.4418 2.04818 10.2642 1.97344 10.0784 1.97145C9.89418 1.97437 9.7185 2.04982 9.58953 2.18143C9.46055 2.31305 9.38868 2.4902 9.38951 2.67447ZM10.0784 2.15629C10.2266 2.05794 10.2878 1.97145 10.2878 1.8731C10.2876 1.82274 10.2793 1.77275 10.2633 1.72499L10.1894 1.42878C10.1547 1.445 10.1168 1.4534 10.0784 1.4534C10.0401 1.4534 10.0022 1.445 9.96745 1.42878L9.89358 1.72499C9.8776 1.77275 9.86934 1.82274 9.86909 1.8731C9.86909 1.97145 9.93033 2.05794 10.0784 2.15629ZM9.01786 1.07173C9.15335 1.24394 9.22798 1.30556 9.37534 1.26843L9.71982 1.18194C9.70364 1.14731 9.69526 1.10956 9.69526 1.07134C9.69526 1.03312 9.70364 0.995373 9.71982 0.960745L9.38682 0.874253C9.2387 0.835983 9.1522 0.886119 9.01671 1.07173H9.01786ZM11.1509 1.07173C11.0154 0.886501 10.9289 0.837131 10.7808 0.874253L10.4486 0.960745C10.4647 0.995373 10.4731 1.03312 10.4731 1.07134C10.4731 1.10956 10.4647 1.14731 10.4486 1.18194L10.793 1.26843C10.9412 1.3067 11.0154 1.24394 11.1509 1.07173ZM3.3708 5.75748C3.3708 5.82561 3.39101 5.8922 3.42886 5.94884C3.46671 6.00548 3.52051 6.04963 3.58345 6.07569C3.6464 6.10176 3.71566 6.10858 3.78248 6.09529C3.8493 6.082 3.91068 6.0492 3.95885 6.00103C4.00703 5.95286 4.03984 5.89149 4.05313 5.82468C4.06642 5.75787 4.0596 5.68861 4.03352 5.62568C4.00745 5.56274 3.9633 5.50895 3.90665 5.4711C3.85001 5.43326 3.7834 5.41306 3.71527 5.41306C3.62456 5.4151 3.53812 5.45205 3.47396 5.5162C3.4098 5.58036 3.37285 5.66678 3.3708 5.75748ZM3.5928 4.58605C3.5928 4.65417 3.613 4.72076 3.65085 4.7774C3.6887 4.83404 3.7425 4.87819 3.80545 4.90426C3.86839 4.93032 3.93765 4.93715 4.00447 4.92386C4.07129 4.91057 4.13267 4.87776 4.18085 4.82959C4.22902 4.78142 4.26183 4.72005 4.27512 4.65324C4.28841 4.58643 4.28159 4.51718 4.25552 4.45424C4.22945 4.3913 4.1853 4.33751 4.12865 4.29966C4.072 4.26182 4.0054 4.24162 3.93727 4.24162C3.84658 4.24376 3.7602 4.28073 3.69606 4.34487C3.63191 4.409 3.59493 4.49537 3.5928 4.58605ZM4.32002 3.69819C4.32002 3.76631 4.34022 3.8329 4.37807 3.88954C4.41592 3.94618 4.46972 3.99033 4.53267 4.0164C4.59561 4.04246 4.66487 4.04929 4.73169 4.036C4.79851 4.02271 4.85989 3.9899 4.90807 3.94173C4.95624 3.89356 4.98905 3.83219 5.00234 3.76538C5.01563 3.69857 5.00881 3.62931 4.98274 3.56638C4.95667 3.50344 4.91251 3.44965 4.85587 3.4118C4.79922 3.37396 4.73262 3.35376 4.66449 3.35376C4.57374 3.35571 4.48725 3.39262 4.42307 3.4568C4.35889 3.52097 4.32197 3.60745 4.32002 3.69819ZM5.37984 3.34074C5.37984 3.40886 5.40005 3.47546 5.4379 3.5321C5.47575 3.58874 5.52955 3.63289 5.59249 3.65896C5.65544 3.68502 5.7247 3.69185 5.79152 3.67856C5.85834 3.66527 5.91972 3.63246 5.9679 3.58429C6.01607 3.53612 6.04888 3.47475 6.06217 3.40794C6.07546 3.34113 6.06864 3.27187 6.04257 3.20894C6.01649 3.146 5.97234 3.09221 5.91569 3.05436C5.85905 3.01652 5.79245 2.99632 5.72432 2.99632C5.63363 2.99846 5.54725 3.03543 5.4831 3.09957C5.41896 3.1637 5.38198 3.25007 5.37984 3.34074ZM6.51431 3.36524C6.51431 3.43336 6.53451 3.49995 6.57236 3.55659C6.61021 3.61323 6.66401 3.65738 6.72695 3.68345C6.7899 3.70952 6.85916 3.71634 6.92598 3.70305C6.9928 3.68976 7.05418 3.65696 7.10236 3.60879C7.15053 3.56062 7.18334 3.49925 7.19663 3.43243C7.20992 3.36562 7.2031 3.29637 7.17703 3.23343C7.15096 3.17049 7.1068 3.1167 7.05016 3.07886C6.99351 3.04101 6.92691 3.02081 6.85878 3.02081C6.76809 3.02295 6.68171 3.05992 6.61757 3.12406C6.55343 3.18819 6.51645 3.27456 6.51431 3.36524ZM7.5994 3.56271C7.5994 3.63083 7.6196 3.69742 7.65745 3.75406C7.6953 3.81071 7.7491 3.85485 7.81204 3.88092C7.87499 3.90699 7.94425 3.91381 8.01107 3.90052C8.07789 3.88723 8.13927 3.85443 8.18745 3.80626C8.23562 3.75809 8.26843 3.69672 8.28172 3.6299C8.29501 3.56309 8.28819 3.49384 8.26212 3.4309C8.23605 3.36797 8.19189 3.31417 8.13525 3.27633C8.0786 3.23848 8.012 3.21828 7.94387 3.21828C7.85315 3.22033 7.76671 3.25727 7.70255 3.32143C7.63839 3.38558 7.60144 3.472 7.5994 3.56271ZM8.65922 3.83366C8.65922 3.90178 8.67943 3.96837 8.71728 4.02501C8.75513 4.08166 8.80893 4.1258 8.87187 4.15187C8.93482 4.17794 9.00408 4.18476 9.0709 4.17147C9.13772 4.15818 9.1991 4.12538 9.24727 4.07721C9.29545 4.02904 9.32826 3.96767 9.34155 3.90086C9.35484 3.83404 9.34802 3.76479 9.32195 3.70185C9.29587 3.63892 9.25172 3.58512 9.19507 3.54728C9.13843 3.50943 9.07183 3.48923 9.00369 3.48923C8.91307 3.49156 8.82679 3.52859 8.76269 3.59269C8.69859 3.65678 8.66155 3.74304 8.65922 3.83366ZM3.55758 6.87917C3.55758 6.94729 3.57779 7.01389 3.61564 7.07053C3.65349 7.12717 3.70729 7.17131 3.77023 7.19738C3.83318 7.22345 3.90244 7.23027 3.96926 7.21698C4.03608 7.20369 4.09746 7.17089 4.14563 7.12272C4.19381 7.07455 4.22662 7.01318 4.23991 6.94637C4.2532 6.87956 4.24638 6.8103 4.22031 6.74737C4.19424 6.68443 4.15008 6.63064 4.09343 6.59279C4.03679 6.55495 3.97019 6.53474 3.90205 6.53474C3.81134 6.53679 3.7249 6.57374 3.66074 6.63789C3.59658 6.70205 3.55963 6.78847 3.55758 6.87917ZM10.4252 6.32464C10.4252 6.25652 10.405 6.18993 10.3672 6.13329C10.3293 6.07665 10.2755 6.0325 10.2126 6.00643C10.1496 5.98037 10.0804 5.97354 10.0135 5.98683C9.94672 6.00012 9.88534 6.03293 9.83717 6.0811C9.78899 6.12926 9.75618 6.19064 9.74289 6.25745C9.7296 6.32426 9.73642 6.39351 9.76249 6.45645C9.78857 6.51939 9.83272 6.57318 9.88937 6.61103C9.94602 6.64887 10.0126 6.66907 10.0807 6.66907C10.1714 6.66693 10.2578 6.62996 10.322 6.56582C10.3861 6.50169 10.4231 6.41532 10.4252 6.32464ZM10.4252 5.23969C10.4252 5.17157 10.405 5.10498 10.3672 5.04834C10.3293 4.9917 10.2755 4.94755 10.2126 4.92148C10.1496 4.89541 10.0804 4.8886 10.0135 4.90189C9.94672 4.91517 9.88534 4.94798 9.83717 4.99615C9.78899 5.04432 9.75618 5.10569 9.74289 5.1725C9.7296 5.23931 9.73642 5.30857 9.76249 5.3715C9.78857 5.43444 9.83272 5.48823 9.88937 5.52608C9.94602 5.56392 10.0126 5.58412 10.0807 5.58412C10.1714 5.58198 10.2578 5.54501 10.322 5.48087C10.3861 5.41674 10.4231 5.33037 10.4252 5.23969ZM16.7869 5.75787C16.7869 5.68975 16.7667 5.62315 16.7288 5.56651C16.691 5.50987 16.6372 5.46573 16.5742 5.43966C16.5113 5.41359 16.442 5.40677 16.3752 5.42006C16.3084 5.43335 16.247 5.46615 16.1988 5.51432C16.1506 5.56249 16.1178 5.62386 16.1045 5.69067C16.0912 5.75748 16.0981 5.82674 16.1241 5.88967C16.1502 5.95261 16.1944 6.0064 16.251 6.04425C16.3077 6.08209 16.3743 6.1023 16.4424 6.1023C16.5331 6.10016 16.6195 6.06318 16.6836 5.99905C16.7477 5.93491 16.7847 5.84854 16.7869 5.75787ZM16.5649 4.58643C16.5649 4.51831 16.5447 4.45171 16.5068 4.39507C16.469 4.33843 16.4152 4.29429 16.3522 4.26822C16.2893 4.24215 16.22 4.23533 16.1532 4.24862C16.0864 4.26191 16.025 4.29471 15.9768 4.34288C15.9286 4.39105 15.8958 4.45242 15.8825 4.51923C15.8692 4.58605 15.8761 4.6553 15.9021 4.71824C15.9282 4.78117 15.9724 4.83496 16.029 4.87281C16.0857 4.91066 16.1523 4.93086 16.2204 4.93086C16.311 4.92853 16.3973 4.8915 16.4614 4.8274C16.5255 4.76331 16.5625 4.67704 16.5649 4.58643ZM15.8376 3.69857C15.8376 3.63045 15.8174 3.56385 15.7796 3.50721C15.7417 3.45057 15.6879 3.40642 15.625 3.38036C15.5621 3.35429 15.4928 3.34747 15.426 3.36076C15.3592 3.37405 15.2978 3.40685 15.2496 3.45502C15.2014 3.50319 15.1686 3.56456 15.1553 3.63137C15.142 3.69819 15.1489 3.76744 15.1749 3.83037C15.201 3.89331 15.2451 3.9471 15.3018 3.98495C15.3584 4.0228 15.425 4.043 15.4932 4.043C15.5839 4.04095 15.6703 4.00401 15.7345 3.93985C15.7987 3.8757 15.8356 3.78927 15.8376 3.69857ZM14.7767 3.3396C14.7767 3.27147 14.7565 3.20488 14.7186 3.14824C14.6808 3.0916 14.627 3.04746 14.564 3.02139C14.5011 2.99532 14.4318 2.9885 14.365 3.00179C14.2982 3.01508 14.2368 3.04788 14.1886 3.09605C14.1404 3.14422 14.1076 3.20559 14.0943 3.2724C14.0811 3.33921 14.0879 3.40847 14.1139 3.4714C14.14 3.53434 14.1842 3.58813 14.2408 3.62598C14.2975 3.66382 14.3641 3.68403 14.4322 3.68403C14.5229 3.68207 14.6094 3.64516 14.6736 3.58098C14.7378 3.51681 14.7747 3.43033 14.7767 3.3396ZM13.643 3.36409C13.643 3.29597 13.6228 3.22938 13.5849 3.17273C13.5471 3.11609 13.4933 3.07195 13.4303 3.04588C13.3674 3.01981 13.2981 3.01299 13.2313 3.02628C13.1645 3.03957 13.1031 3.07237 13.0549 3.12054C13.0067 3.16871 12.9739 3.23008 12.9606 3.29689C12.9474 3.36371 12.9542 3.43296 12.9803 3.4959C13.0063 3.55883 13.0505 3.61262 13.1071 3.65047C13.1638 3.68832 13.2304 3.70852 13.2985 3.70852C13.3892 3.70647 13.4757 3.66953 13.5398 3.60537C13.604 3.54122 13.6409 3.4548 13.643 3.36409ZM12.5579 3.56156C12.5579 3.49344 12.5377 3.42685 12.4998 3.37021C12.462 3.31357 12.4082 3.26942 12.3452 3.24335C12.2823 3.21728 12.213 3.21046 12.1462 3.22375C12.0794 3.23704 12.018 3.26984 11.9698 3.31801C11.9217 3.36618 11.8889 3.42755 11.8756 3.49437C11.8623 3.56118 11.8691 3.63043 11.8952 3.69337C11.9212 3.7563 11.9654 3.8101 12.022 3.84794C12.0787 3.88579 12.1453 3.90599 12.2134 3.90599C12.3041 3.90395 12.3906 3.867 12.4547 3.80284C12.5189 3.73869 12.5558 3.65227 12.5579 3.56156ZM11.4981 3.83251C11.4981 3.76439 11.4779 3.6978 11.44 3.64116C11.4022 3.58452 11.3484 3.54037 11.2854 3.5143C11.2225 3.48823 11.1532 3.48141 11.0864 3.4947C11.0196 3.50799 10.9582 3.54079 10.91 3.58896C10.8618 3.63713 10.829 3.6985 10.8157 3.76532C10.8024 3.83213 10.8093 3.90138 10.8353 3.96432C10.8614 4.02726 10.9056 4.08105 10.9622 4.11889C11.0189 4.15674 11.0855 4.17694 11.1536 4.17694C11.2442 4.17471 11.3306 4.1377 11.3947 4.07359C11.4588 4.00947 11.4958 3.92316 11.4981 3.83251ZM9.73436 4.15359C9.73436 4.22172 9.75456 4.28831 9.79241 4.34495C9.83026 4.40159 9.88406 4.44574 9.94701 4.47181C10.01 4.49788 10.0792 4.50469 10.146 4.49141C10.2129 4.47812 10.2742 4.44531 10.3224 4.39714C10.3706 4.34897 10.4034 4.2876 10.4167 4.22079C10.43 4.15398 10.4232 4.08472 10.3971 4.02179C10.371 3.95885 10.3269 3.90506 10.2702 3.86721C10.2136 3.82937 10.147 3.80917 10.0788 3.80917C9.98814 3.81131 9.90177 3.84828 9.83762 3.91242C9.77348 3.97655 9.7365 4.06292 9.73436 4.15359ZM16.6016 6.87764C16.6016 6.80952 16.5814 6.74293 16.5436 6.68629C16.5057 6.62965 16.4519 6.5855 16.389 6.55943C16.326 6.53336 16.2568 6.52654 16.1899 6.53983C16.1231 6.55312 16.0617 6.58593 16.0136 6.63409C15.9654 6.68226 15.9326 6.74364 15.9193 6.81045C15.906 6.87726 15.9128 6.94651 15.9389 7.00945C15.965 7.07239 16.0091 7.12618 16.0658 7.16402C16.1224 7.20187 16.189 7.22207 16.2571 7.22207C16.3479 7.22003 16.4343 7.18308 16.4985 7.11893C16.5626 7.05477 16.5996 6.96835 16.6016 6.87764ZM9.4385 4.77089C8.43933 4.36584 7.38267 4.12047 6.30724 4.04376C5.11116 4.04376 4.4823 4.7839 4.4823 5.77011C4.49193 6.27847 4.62317 6.77712 4.86505 7.22437L5.3454 7.3851C5.01147 6.9171 4.83057 6.35725 4.82754 5.78236C4.81175 5.58848 4.83874 5.39349 4.9066 5.21118C4.97447 5.02887 5.08155 4.86369 5.22028 4.72732C5.35901 4.59094 5.52601 4.48669 5.70947 4.42194C5.89292 4.35719 6.08837 4.33352 6.28198 4.3526C7.25289 4.39175 8.20893 4.60458 9.10474 4.98099L9.01824 5.74639C8.97903 6.19863 8.90908 6.64768 8.80888 7.09042L9.21574 6.83134L9.4385 4.77089ZM10.9431 6.82981L11.3499 7.08889C11.25 6.6461 11.1801 6.19706 11.1406 5.74486L11.0548 4.97946C11.9507 4.60305 12.9067 4.39022 13.8776 4.35107C14.0737 4.33504 14.271 4.36208 14.4555 4.43029C14.6401 4.4985 14.8075 4.60623 14.9461 4.74593C15.0847 4.88564 15.191 5.05394 15.2577 5.23906C15.3243 5.42417 15.3497 5.62161 15.332 5.81757C15.3289 6.38134 15.1479 6.92975 14.8149 7.38472L15.2953 7.22398C15.5309 6.77427 15.6617 6.27713 15.678 5.76973C15.678 4.73453 15.0496 4.04338 13.8531 4.04338C12.7777 4.12008 11.721 4.36546 10.7218 4.7705L10.9431 6.82981ZM23.8034 37.9191C26.3295 36.9202 27.9095 34.652 27.9095 32.2115C27.9107 31.3213 27.7036 30.4432 27.3048 29.6474L22.2751 31.4721C22.8929 32.0463 23.3842 32.7431 23.7174 33.5179C24.0506 34.2927 24.2185 35.1285 24.2102 35.9719C24.2322 36.6445 24.0919 37.3124 23.8015 37.9195L23.8034 37.9191Z" fill="#1C1D22"/>
        <path d="M40.3066 3.9668H41.1426V10.2897H44.4977V11.0398H40.3066V3.9668Z" fill="#1C1D22"/>
        <path d="M48.0898 3.9668H48.9258V11.0398H48.0898V3.9668Z" fill="#1C1D22"/>
        <path d="M53.2227 3.9668H57.7563V4.7165H54.059V6.88143H56.8882V7.63152H54.059V10.2897H57.8864V11.0398H53.2227V3.9668Z" fill="#1C1D22"/>
        <path d="M60.7589 7.50311C60.7547 7.02037 60.847 6.54165 61.0304 6.09507C61.2138 5.64848 61.4846 5.24305 61.8269 4.90258C62.1692 4.5621 62.5761 4.29346 63.0237 4.11242C63.4713 3.93138 63.9505 3.8416 64.4333 3.84834C65.011 3.83682 65.5824 3.97014 66.0953 4.23613C66.6082 4.50212 67.0464 4.89232 67.3697 5.3711L66.7485 5.86402C66.5004 5.4791 66.1589 5.16322 65.7559 4.94581C65.3528 4.7284 64.9012 4.61654 64.4433 4.62063C63.6901 4.63799 62.9736 4.94934 62.447 5.48809C61.9205 6.02684 61.6257 6.75022 61.6257 7.5035C61.6257 8.25678 61.9205 8.98016 62.447 9.51891C62.9736 10.0577 63.6901 10.369 64.4433 10.3864C64.9012 10.3905 65.3528 10.2786 65.7559 10.0612C66.1589 9.84378 66.5004 9.5279 66.7485 9.14298L67.3697 9.63589C67.0482 10.1163 66.6103 10.5077 66.097 10.7737C65.5836 11.0396 65.0113 11.1715 64.4333 11.1571C63.9506 11.164 63.4713 11.0743 63.0237 10.8933C62.5761 10.7124 62.1692 10.4438 61.8269 10.1034C61.4846 9.76298 61.2138 9.35759 61.0304 8.91105C60.847 8.46451 60.7547 7.98583 60.7589 7.50311Z" fill="#1C1D22"/>
        <path d="M70.8135 3.9668H71.6494V6.88143H75.615V3.9668H76.451V11.0398H75.615V7.63152H71.6494V11.0398H70.8135V3.9668Z" fill="#1C1D22"/>
        <path d="M82.2613 4.7165H79.7734V3.9668H85.5912V4.7165H83.098V11.0402H82.2621L82.2613 4.7165Z" fill="#1C1D22"/>
        <path d="M89.1328 3.9668H93.6649V4.7165H89.9676V6.88143H92.7969V7.63152H89.9676V10.2897H93.7951V11.0398H89.1328V3.9668Z" fill="#1C1D22"/>
        <path d="M103.195 3.96727V11.1578H102.895L98.3935 5.73572V11.0403H97.5576V3.84863H97.8577L102.359 9.28295V3.96727H103.195Z" fill="#1C1D22"/>
        <path d="M106.756 9.6357L107.377 9.17646C107.574 9.53095 107.859 9.82869 108.204 10.0409C108.55 10.2531 108.944 10.3725 109.349 10.3877C110.185 10.3877 110.775 9.92846 110.775 9.20861C110.775 8.55496 110.293 8.2974 109.596 7.96522L108.803 7.59017C108.063 7.23694 107.206 6.74364 107.206 5.69314C107.206 4.56839 108.192 3.84968 109.339 3.84968C109.781 3.84642 110.216 3.95482 110.604 4.16479C110.992 4.37475 111.321 4.67947 111.559 5.05059L110.949 5.50983C110.774 5.23913 110.534 5.01618 110.251 4.861C109.969 4.70583 109.652 4.6233 109.329 4.62082C108.676 4.62082 108.076 4.95262 108.076 5.64989C108.076 6.29244 108.569 6.52819 109.212 6.8397L109.994 7.21437C111.023 7.70805 111.645 8.22201 111.645 9.18641C111.645 10.3762 110.669 11.1577 109.362 11.1577C108.831 11.1601 108.309 11.0202 107.851 10.7525C107.393 10.4848 107.015 10.0992 106.756 9.6357Z" fill="#1C1D22"/>
        <path d="M116.917 4.7165H114.429V3.9668H120.246V4.7165H117.752V11.0402H116.917V4.7165Z" fill="#1C1D22"/>
        <path d="M123.573 3.9668H128.107V4.7165H124.41V6.88143H127.239V7.63152H124.41V10.2897H128.237V11.0398H123.573V3.9668Z" fill="#1C1D22"/>
        <path d="M132.214 3.9668H133.05V11.0398H132.214V3.9668Z" fill="#1C1D22"/>
        <path d="M142.772 3.96727V11.1578H142.472L137.97 5.73572V11.0403H137.134V3.84863H137.433L141.935 9.28295V3.96727H142.772Z" fill="#1C1D22"/>
    </g>
    <defs>
        <clipPath id="clip0_302_1605">
            <rect width="142.782" height="42" fill="white"/>
        </clipPath>
    </defs>
</svg>
