<svg width="143" height="42" viewBox="0 0 143 42" fill="none"
    xmlns="http://www.w3.org/2000/svg">
    <g clip-path="url(#clip0_202_1470)">
        <path d="M9.80861 11.7362H5.08666V27.7621C5.08666 32.0762 4.19869 34.1845 3.13809 35.6147C2.33829 36.7241 1.25753 37.6006 0.00683594 38.1543V38.2526C0.676316 38.118 1.35836 38.056 2.04114 38.0678C3.38535 38.0678 4.93854 38.2277 8.35341 39.3865L13.643 41.1737C14.9452 41.6832 16.326 41.9629 17.7238 42.0004C20.25 42.0004 23.1236 40.2488 23.8015 37.9193C23.2069 38.4496 22.4274 38.7246 21.6317 38.6847C20.4213 38.6242 19.2237 38.4085 18.0683 38.0429L13.8271 36.8841C11.1517 36.1569 9.72173 35.948 8.30365 35.948C6.76569 35.9644 5.23631 36.1796 3.75355 36.5882C7.94655 35.1577 9.80861 31.927 9.80861 26.5784V11.7362ZM10.4126 11.7362H15.1468V23.0771C15.1468 31.0904 11.6209 34.4183 6.02362 35.8592C9.27697 34.0839 10.413 31.0269 10.413 26.2917L10.4126 11.7362ZM15.1969 10.9475C15.5561 9.87631 16.0535 8.85661 16.6766 7.91419C16.4519 7.71599 16.1622 7.60706 15.8625 7.60803C15.489 7.63274 15.1282 7.7535 14.815 7.9586C14.5019 8.1637 14.247 8.44619 14.0751 8.77871C14.0855 8.67534 14.0897 8.57144 14.0877 8.46757C14.0877 7.69146 13.7433 7.2349 13.1255 7.2349C12.4109 7.2349 11.7817 7.86329 11.6098 8.71441C11.5233 7.81698 10.9304 7.11358 10.0796 7.11358C9.22875 7.11358 8.63702 7.81584 8.55052 8.71633C8.3779 7.8652 7.74905 7.23681 7.03408 7.23681C6.41786 7.23681 6.07262 7.69337 6.07262 8.46948C6.07076 8.57246 6.07498 8.67546 6.08525 8.77794C5.91335 8.44542 5.65849 8.16293 5.34533 7.95783C5.03218 7.75273 4.67136 7.63198 4.29782 7.60726C3.99808 7.60604 3.70835 7.715 3.48371 7.91342C4.10696 8.85571 4.60428 9.87544 4.96303 10.9467L15.1969 10.9475ZM10.0796 -1.22036e-05C9.90698 0.135463 9.84574 0.210088 9.8821 0.357427L9.9686 0.701856C10.0034 0.685645 10.0412 0.677243 10.0796 0.677243C10.1179 0.677243 10.1558 0.685645 10.1906 0.701856L10.2771 0.368908C10.3154 0.220804 10.2645 0.134316 10.0796 -0.00115967V-1.22036e-05ZM9.91961 1.07154C9.91976 1.10315 9.92927 1.134 9.94694 1.16021C9.96461 1.18641 9.98965 1.2068 10.0189 1.21879C10.0481 1.23078 10.0803 1.23384 10.1113 1.22758C10.1423 1.22132 10.1707 1.20602 10.193 1.18362C10.2153 1.16122 10.2305 1.13272 10.2366 1.10171C10.2427 1.0707 10.2395 1.03857 10.2273 1.00939C10.2152 0.9802 10.1947 0.955261 10.1684 0.937717C10.1421 0.920173 10.1112 0.910809 10.0796 0.910809C10.0372 0.911503 9.99684 0.928686 9.96697 0.958702C9.93709 0.988717 9.9201 1.0292 9.91961 1.07154ZM9.38951 2.67428C9.38951 2.85698 9.46209 3.03219 9.59129 3.16138C9.72049 3.29056 9.89573 3.36314 10.0784 3.36314C10.2626 3.36387 10.4397 3.29195 10.5712 3.16299C10.7026 3.03402 10.778 2.85842 10.7808 2.67428C10.779 2.48852 10.7045 2.31086 10.5731 2.17943C10.4418 2.04799 10.2642 1.97326 10.0784 1.97127C9.89418 1.97419 9.7185 2.04964 9.58953 2.18125C9.46055 2.31286 9.38868 2.49002 9.38951 2.67428ZM10.0784 2.15611C10.2266 2.05776 10.2878 1.97127 10.2878 1.87291C10.2876 1.82256 10.2793 1.77256 10.2633 1.72481L10.1894 1.4286C10.1547 1.44481 10.1168 1.45321 10.0784 1.45321C10.0401 1.45321 10.0022 1.44481 9.96745 1.4286L9.89358 1.72481C9.8776 1.77256 9.86934 1.82256 9.86909 1.87291C9.86909 1.97127 9.93033 2.05776 10.0784 2.15611ZM9.01786 1.07154C9.15335 1.24376 9.22798 1.30537 9.37534 1.26825L9.71982 1.18176C9.70364 1.14713 9.69526 1.10938 9.69526 1.07116C9.69526 1.03294 9.70364 0.99519 9.71982 0.960562L9.38682 0.87407C9.2387 0.8358 9.1522 0.885936 9.01671 1.07154H9.01786ZM11.1509 1.07154C11.0154 0.886318 10.9289 0.836948 10.7808 0.87407L10.4486 0.960562C10.4647 0.99519 10.4731 1.03294 10.4731 1.07116C10.4731 1.10938 10.4647 1.14713 10.4486 1.18176L10.793 1.26825C10.9412 1.30652 11.0154 1.24376 11.1509 1.07154ZM3.3708 5.7573C3.3708 5.82542 3.39101 5.89202 3.42886 5.94866C3.46671 6.0053 3.52051 6.04944 3.58345 6.07551C3.6464 6.10158 3.71566 6.1084 3.78248 6.09511C3.8493 6.08182 3.91068 6.04902 3.95885 6.00085C4.00703 5.95268 4.03984 5.89131 4.05313 5.8245C4.06642 5.75768 4.0596 5.68843 4.03352 5.62549C4.00745 5.56256 3.9633 5.50877 3.90665 5.47092C3.85001 5.43307 3.7834 5.41287 3.71527 5.41287C3.62456 5.41492 3.53812 5.45186 3.47396 5.51602C3.4098 5.58017 3.37285 5.6666 3.3708 5.7573ZM3.5928 4.58586C3.5928 4.65398 3.613 4.72057 3.65085 4.77722C3.6887 4.83386 3.7425 4.878 3.80545 4.90407C3.86839 4.93014 3.93765 4.93696 4.00447 4.92367C4.07129 4.91038 4.13267 4.87758 4.18085 4.82941C4.22902 4.78124 4.26183 4.71987 4.27512 4.65306C4.28841 4.58624 4.28159 4.51699 4.25552 4.45406C4.22945 4.39112 4.1853 4.33733 4.12865 4.29948C4.072 4.26164 4.0054 4.24143 3.93727 4.24143C3.84658 4.24357 3.7602 4.28055 3.69606 4.34468C3.63191 4.40882 3.59493 4.49519 3.5928 4.58586ZM4.32002 3.698C4.32002 3.76612 4.34022 3.83271 4.37807 3.88935C4.41592 3.946 4.46972 3.99014 4.53267 4.01621C4.59561 4.04228 4.66487 4.0491 4.73169 4.03581C4.79851 4.02252 4.85989 3.98972 4.90807 3.94155C4.95624 3.89338 4.98905 3.83201 5.00234 3.7652C5.01563 3.69838 5.00881 3.62913 4.98274 3.56619C4.95667 3.50326 4.91251 3.44947 4.85587 3.41162C4.79922 3.37378 4.73262 3.35357 4.66449 3.35357C4.57374 3.35553 4.48725 3.39244 4.42307 3.45661C4.35889 3.52079 4.32197 3.60727 4.32002 3.698ZM5.37984 3.34056C5.37984 3.40868 5.40005 3.47527 5.4379 3.53192C5.47575 3.58856 5.52955 3.6327 5.59249 3.65877C5.65544 3.68484 5.7247 3.69166 5.79152 3.67837C5.85834 3.66508 5.91972 3.63228 5.9679 3.58411C6.01607 3.53594 6.04888 3.47457 6.06217 3.40776C6.07546 3.34094 6.06864 3.27169 6.04257 3.20875C6.01649 3.14582 5.97234 3.09203 5.91569 3.05418C5.85905 3.01633 5.79245 2.99613 5.72432 2.99613C5.63363 2.99827 5.54725 3.03525 5.4831 3.09938C5.41896 3.16352 5.38198 3.24988 5.37984 3.34056ZM6.51431 3.36505C6.51431 3.43318 6.53451 3.49977 6.57236 3.55641C6.61021 3.61305 6.66401 3.65719 6.72695 3.68326C6.7899 3.70933 6.85916 3.71615 6.92598 3.70286C6.9928 3.68957 7.05418 3.65677 7.10236 3.6086C7.15053 3.56043 7.18334 3.49906 7.19663 3.43225C7.20992 3.36544 7.2031 3.29618 7.17703 3.23325C7.15096 3.17031 7.1068 3.11652 7.05016 3.07867C6.99351 3.04083 6.92691 3.02063 6.85878 3.02063C6.76809 3.02276 6.68171 3.05974 6.61757 3.12387C6.55343 3.18801 6.51645 3.27438 6.51431 3.36505ZM7.5994 3.56253C7.5994 3.63065 7.6196 3.69724 7.65745 3.75388C7.6953 3.81052 7.7491 3.85467 7.81204 3.88074C7.87499 3.9068 7.94425 3.91363 8.01107 3.90034C8.07789 3.88705 8.13927 3.85424 8.18745 3.80607C8.23562 3.75791 8.26843 3.69653 8.28172 3.62972C8.29501 3.56291 8.28819 3.49366 8.26212 3.43072C8.23605 3.36778 8.19189 3.31399 8.13525 3.27614C8.0786 3.2383 8.012 3.2181 7.94387 3.2181C7.85315 3.22014 7.76671 3.25709 7.70255 3.32124C7.63839 3.3854 7.60144 3.47182 7.5994 3.56253ZM8.65922 3.83348C8.65922 3.9016 8.67943 3.96819 8.71728 4.02483C8.75513 4.08147 8.80893 4.12562 8.87187 4.15169C8.93482 4.17776 9.00408 4.18458 9.0709 4.17129C9.13772 4.158 9.1991 4.12519 9.24727 4.07703C9.29545 4.02886 9.32826 3.96748 9.34155 3.90067C9.35484 3.83386 9.34802 3.76461 9.32195 3.70167C9.29587 3.63873 9.25172 3.58494 9.19507 3.5471C9.13843 3.50925 9.07183 3.48905 9.00369 3.48905C8.91307 3.49137 8.82679 3.52841 8.76269 3.5925C8.69859 3.6566 8.66155 3.74286 8.65922 3.83348ZM3.55758 6.87899C3.55758 6.94711 3.57779 7.0137 3.61564 7.07035C3.65349 7.12699 3.70729 7.17113 3.77023 7.1972C3.83318 7.22327 3.90244 7.23009 3.96926 7.2168C4.03608 7.20351 4.09746 7.17071 4.14563 7.12254C4.19381 7.07437 4.22662 7.013 4.23991 6.94619C4.2532 6.87937 4.24638 6.81012 4.22031 6.74718C4.19424 6.68425 4.15008 6.63046 4.09343 6.59261C4.03679 6.55476 3.97019 6.53456 3.90205 6.53456C3.81134 6.53661 3.7249 6.57355 3.66074 6.63771C3.59658 6.70186 3.55963 6.78828 3.55758 6.87899ZM10.4252 6.32446C10.4252 6.25634 10.405 6.18975 10.3672 6.13311C10.3293 6.07647 10.2755 6.03232 10.2126 6.00625C10.1496 5.98018 10.0804 5.97336 10.0135 5.98665C9.94672 5.99994 9.88534 6.03274 9.83717 6.08091C9.78899 6.12908 9.75618 6.19045 9.74289 6.25727C9.7296 6.32408 9.73642 6.39333 9.76249 6.45627C9.78857 6.5192 9.83272 6.573 9.88937 6.61084C9.94602 6.64869 10.0126 6.66889 10.0807 6.66889C10.1714 6.66675 10.2578 6.62978 10.322 6.56564C10.3861 6.50151 10.4231 6.41514 10.4252 6.32446ZM10.4252 5.23951C10.4252 5.17139 10.405 5.1048 10.3672 5.04816C10.3293 4.99152 10.2755 4.94737 10.2126 4.9213C10.1496 4.89523 10.0804 4.88841 10.0135 4.9017C9.94672 4.91499 9.88534 4.94779 9.83717 4.99596C9.78899 5.04413 9.75618 5.1055 9.74289 5.17232C9.7296 5.23913 9.73642 5.30838 9.76249 5.37132C9.78857 5.43425 9.83272 5.48805 9.88937 5.52589C9.94602 5.56374 10.0126 5.58394 10.0807 5.58394C10.1714 5.5818 10.2578 5.54482 10.322 5.48069C10.3861 5.41655 10.4231 5.33019 10.4252 5.23951ZM16.7869 5.75768C16.7869 5.68956 16.7667 5.62297 16.7288 5.56633C16.691 5.50969 16.6372 5.46554 16.5742 5.43947C16.5113 5.41341 16.442 5.40658 16.3752 5.41987C16.3084 5.43316 16.247 5.46597 16.1988 5.51414C16.1506 5.5623 16.1178 5.62368 16.1045 5.69049C16.0912 5.7573 16.0981 5.82655 16.1241 5.88949C16.1502 5.95243 16.1944 6.00622 16.251 6.04407C16.3077 6.08191 16.3743 6.10211 16.4424 6.10211C16.5331 6.09997 16.6195 6.063 16.6836 5.99886C16.7477 5.93473 16.7847 5.84836 16.7869 5.75768ZM16.5649 4.58625C16.5649 4.51812 16.5447 4.45153 16.5068 4.39489C16.469 4.33825 16.4152 4.2941 16.3522 4.26804C16.2893 4.24197 16.22 4.23515 16.1532 4.24844C16.0864 4.26172 16.025 4.29453 15.9768 4.3427C15.9286 4.39087 15.8958 4.45224 15.8825 4.51905C15.8692 4.58586 15.8761 4.65512 15.9021 4.71805C15.9282 4.78099 15.9724 4.83478 16.029 4.87263C16.0857 4.91047 16.1523 4.93067 16.2204 4.93067C16.311 4.92835 16.3973 4.89131 16.4614 4.82722C16.5255 4.76312 16.5625 4.67686 16.5649 4.58625ZM15.8376 3.69839C15.8376 3.63026 15.8174 3.56367 15.7796 3.50703C15.7417 3.45039 15.6879 3.40624 15.625 3.38017C15.5621 3.3541 15.4928 3.34729 15.426 3.36058C15.3592 3.37387 15.2978 3.40667 15.2496 3.45484C15.2014 3.50301 15.1686 3.56438 15.1553 3.63119C15.142 3.698 15.1489 3.76726 15.1749 3.83019C15.201 3.89313 15.2451 3.94692 15.3018 3.98477C15.3584 4.02261 15.425 4.04281 15.4932 4.04281C15.5839 4.04077 15.6703 4.00382 15.7345 3.93967C15.7987 3.87551 15.8356 3.78909 15.8376 3.69839ZM14.7767 3.33941C14.7767 3.27129 14.7565 3.2047 14.7186 3.14806C14.6808 3.09142 14.627 3.04727 14.564 3.0212C14.5011 2.99513 14.4318 2.98831 14.365 3.0016C14.2982 3.01489 14.2368 3.0477 14.1886 3.09586C14.1404 3.14403 14.1076 3.2054 14.0943 3.27222C14.0811 3.33903 14.0879 3.40828 14.1139 3.47122C14.14 3.53416 14.1842 3.58795 14.2408 3.62579C14.2975 3.66364 14.3641 3.68384 14.4322 3.68384C14.5229 3.68189 14.6094 3.64498 14.6736 3.5808C14.7378 3.51663 14.7747 3.43015 14.7767 3.33941ZM13.643 3.36391C13.643 3.29579 13.6228 3.22919 13.5849 3.17255C13.5471 3.11591 13.4933 3.07177 13.4303 3.0457C13.3674 3.01963 13.2981 3.01281 13.2313 3.0261C13.1645 3.03939 13.1031 3.07219 13.0549 3.12036C13.0067 3.16853 12.9739 3.2299 12.9606 3.29671C12.9474 3.36352 12.9542 3.43278 12.9803 3.49571C13.0063 3.55865 13.0505 3.61244 13.1071 3.65029C13.1638 3.68813 13.2304 3.70834 13.2985 3.70834C13.3892 3.70629 13.4757 3.66934 13.5398 3.60519C13.604 3.54103 13.6409 3.45461 13.643 3.36391ZM12.5579 3.56138C12.5579 3.49326 12.5377 3.42666 12.4998 3.37002C12.462 3.31338 12.4082 3.26924 12.3452 3.24317C12.2823 3.2171 12.213 3.21028 12.1462 3.22357C12.0794 3.23686 12.018 3.26966 11.9698 3.31783C11.9217 3.366 11.8889 3.42737 11.8756 3.49418C11.8623 3.561 11.8691 3.63025 11.8952 3.69319C11.9212 3.75612 11.9654 3.80991 12.022 3.84776C12.0787 3.88561 12.1453 3.90581 12.2134 3.90581C12.3041 3.90376 12.3906 3.86682 12.4547 3.80266C12.5189 3.73851 12.5558 3.65208 12.5579 3.56138ZM11.4981 3.83233C11.4981 3.76421 11.4779 3.69762 11.44 3.64097C11.4022 3.58433 11.3484 3.54019 11.2854 3.51412C11.2225 3.48805 11.1532 3.48123 11.0864 3.49452C11.0196 3.50781 10.9582 3.54061 10.91 3.58878C10.8618 3.63695 10.829 3.69832 10.8157 3.76513C10.8024 3.83195 10.8093 3.9012 10.8353 3.96414C10.8614 4.02707 10.9056 4.08086 10.9622 4.11871C11.0189 4.15656 11.0855 4.17676 11.1536 4.17676C11.2442 4.17453 11.3306 4.13752 11.3947 4.0734C11.4588 4.00929 11.4958 3.92297 11.4981 3.83233ZM9.73436 4.15341C9.73436 4.22153 9.75456 4.28813 9.79241 4.34477C9.83026 4.40141 9.88406 4.44556 9.94701 4.47162C10.01 4.49769 10.0792 4.50451 10.146 4.49122C10.2129 4.47793 10.2742 4.44513 10.3224 4.39696C10.3706 4.34879 10.4034 4.28742 10.4167 4.22061C10.43 4.15379 10.4232 4.08454 10.3971 4.02161C10.371 3.95867 10.3269 3.90488 10.2702 3.86703C10.2136 3.82918 10.147 3.80899 10.0788 3.80899C9.98814 3.81112 9.90177 3.8481 9.83762 3.91223C9.77348 3.97637 9.7365 4.06274 9.73436 4.15341ZM16.6016 6.87746C16.6016 6.80934 16.5814 6.74275 16.5436 6.68611C16.5057 6.62946 16.4519 6.58532 16.389 6.55925C16.326 6.53318 16.2568 6.52636 16.1899 6.53965C16.1231 6.55294 16.0617 6.58574 16.0136 6.63391C15.9654 6.68208 15.9326 6.74345 15.9193 6.81027C15.906 6.87708 15.9128 6.94633 15.9389 7.00927C15.965 7.0722 16.0091 7.126 16.0658 7.16384C16.1224 7.20169 16.189 7.22189 16.2571 7.22189C16.3479 7.21984 16.4343 7.1829 16.4985 7.11874C16.5626 7.05459 16.5996 6.96817 16.6016 6.87746ZM9.4385 4.7707C8.43933 4.36566 7.38267 4.12028 6.30724 4.04358C5.11116 4.04358 4.4823 4.78372 4.4823 5.76993C4.49193 6.27828 4.62317 6.77694 4.86505 7.22418L5.3454 7.38492C5.01147 6.91692 4.83057 6.35706 4.82754 5.78218C4.81175 5.58829 4.83874 5.39331 4.9066 5.211C4.97447 5.02869 5.08155 4.86351 5.22028 4.72713C5.35901 4.59075 5.52601 4.48651 5.70947 4.42176C5.89292 4.35701 6.08837 4.33334 6.28198 4.35242C7.25289 4.39157 8.20893 4.6044 9.10474 4.98081L9.01824 5.7462C8.97903 6.19845 8.90908 6.6475 8.80888 7.09024L9.21574 6.83115L9.4385 4.7707ZM10.9431 6.82962L11.3499 7.08871C11.25 6.64591 11.1801 6.19688 11.1406 5.74467L11.0548 4.97928C11.9507 4.60287 12.9067 4.39004 13.8776 4.35088C14.0737 4.33486 14.271 4.3619 14.4555 4.43011C14.6401 4.49832 14.8075 4.60605 14.9461 4.74575C15.0847 4.88546 15.191 5.05376 15.2577 5.23887C15.3243 5.42399 15.3497 5.62143 15.332 5.81738C15.3289 6.38116 15.1479 6.92957 14.8149 7.38453L15.2953 7.2238C15.5309 6.77409 15.6617 6.27695 15.678 5.76955C15.678 4.73435 15.0496 4.0432 13.8531 4.0432C12.7777 4.1199 11.721 4.36527 10.7218 4.77032L10.9431 6.82962ZM23.8034 37.9189C26.3295 36.92 27.9095 34.6518 27.9095 32.2113C27.9107 31.3212 27.7036 30.4431 27.3048 29.6472L22.2751 31.4719C22.8929 32.0461 23.3842 32.7429 23.7174 33.5177C24.0506 34.2925 24.2185 35.1283 24.2102 35.9717C24.2322 36.6443 24.0919 37.3123 23.8015 37.9193L23.8034 37.9189Z" fill="white"/>
        <path d="M40.3066 3.9671H41.1426V10.29H44.4977V11.0401H40.3066V3.9671Z" fill="white"/>
        <path d="M48.0898 3.9671H48.9258V11.0401H48.0898V3.9671Z" fill="white"/>
        <path d="M53.2227 3.9671H57.7563V4.71681H54.059V6.88173H56.8882V7.63182H54.059V10.29H57.8864V11.0401H53.2227V3.9671Z" fill="white"/>
        <path d="M60.7589 7.50324C60.7547 7.02049 60.847 6.54177 61.0304 6.09519C61.2138 5.64861 61.4846 5.24317 61.8269 4.9027C62.1692 4.56222 62.5761 4.29358 63.0237 4.11254C63.4713 3.9315 63.9505 3.84172 64.4333 3.84847C65.011 3.83695 65.5824 3.97026 66.0953 4.23625C66.6082 4.50224 67.0464 4.89244 67.3697 5.37122L66.7485 5.86414C66.5004 5.47922 66.1589 5.16334 65.7559 4.94593C65.3528 4.72852 64.9012 4.61666 64.4433 4.62075C63.6901 4.63811 62.9736 4.94946 62.447 5.48821C61.9205 6.02696 61.6257 6.75034 61.6257 7.50362C61.6257 8.2569 61.9205 8.98028 62.447 9.51903C62.9736 10.0578 63.6901 10.3691 64.4433 10.3865C64.9012 10.3906 65.3528 10.2787 65.7559 10.0613C66.1589 9.8439 66.5004 9.52802 66.7485 9.1431L67.3697 9.63601C67.0482 10.1165 66.6103 10.5078 66.097 10.7738C65.5836 11.0397 65.0113 11.1716 64.4333 11.1572C63.9506 11.1641 63.4713 11.0744 63.0237 10.8935C62.5761 10.7125 62.1692 10.4439 61.8269 10.1035C61.4846 9.7631 61.2138 9.35771 61.0304 8.91117C60.847 8.46463 60.7547 7.98595 60.7589 7.50324Z" fill="white"/>
        <path d="M70.8135 3.9671H71.6494V6.88173H75.615V3.9671H76.451V11.0401H75.615V7.63182H71.6494V11.0401H70.8135V3.9671Z" fill="white"/>
        <path d="M82.2613 4.71681H79.7734V3.9671H85.5912V4.71681H83.098V11.0405H82.2621L82.2613 4.71681Z" fill="white"/>
        <path d="M89.1328 3.9671H93.6649V4.71681H89.9676V6.88173H92.7969V7.63182H89.9676V10.29H93.7951V11.0401H89.1328V3.9671Z" fill="white"/>
        <path d="M103.195 3.96715V11.1577H102.895L98.3935 5.7356V11.0402H97.5576V3.84851H97.8577L102.359 9.28283V3.96715H103.195Z" fill="white"/>
        <path d="M106.756 9.63557L107.377 9.17634C107.574 9.53083 107.859 9.82857 108.204 10.0408C108.55 10.2529 108.944 10.3724 109.349 10.3876C110.185 10.3876 110.775 9.92834 110.775 9.20848C110.775 8.55483 110.293 8.29728 109.596 7.9651L108.803 7.59005C108.063 7.23682 107.206 6.74352 107.206 5.69301C107.206 4.56826 108.192 3.84956 109.339 3.84956C109.781 3.8463 110.216 3.9547 110.604 4.16466C110.992 4.37463 111.321 4.67935 111.559 5.05047L110.949 5.5097C110.774 5.239 110.534 5.01605 110.251 4.86088C109.969 4.70571 109.652 4.62318 109.329 4.6207C108.676 4.6207 108.076 4.95249 108.076 5.64977C108.076 6.29232 108.569 6.52806 109.212 6.83958L109.994 7.21424C111.023 7.70792 111.645 8.22189 111.645 9.18629C111.645 10.3761 110.669 11.1576 109.362 11.1576C108.831 11.16 108.309 11.0201 107.851 10.7524C107.393 10.4847 107.015 10.099 106.756 9.63557Z" fill="white"/>
        <path d="M116.917 4.71681H114.429V3.9671H120.246V4.71681H117.752V11.0405H116.917V4.71681Z" fill="white"/>
        <path d="M123.573 3.96716H128.107V4.71687H124.41V6.88179H127.239V7.63188H124.41V10.2901H128.237V11.0402H123.573V3.96716Z" fill="white"/>
        <path d="M132.214 3.9671H133.05V11.0401H132.214V3.9671Z" fill="white"/>
        <path d="M142.772 3.96715V11.1577H142.472L137.97 5.7356V11.0402H137.134V3.84851H137.433L141.935 9.28283V3.96715H142.772Z" fill="white"/>
    </g>
    <defs>
        <clipPath id="clip0_202_1470">
            <rect width="142.782" height="42" fill="white"/>
        </clipPath>
    </defs>
</svg>
