<svg width="20" height="21" viewBox="0 0 20 21" fill="none"
    xmlns="http://www.w3.org/2000/svg">
    <path fill-rule="evenodd" clip-rule="evenodd" d="M9.99967 1.33337C4.93706 1.33337 0.833008 5.43743 0.833008 10.5C0.833008 15.5626 4.93706 19.6667 9.99967 19.6667C15.0623 19.6667 19.1663 15.5626 19.1663 10.5C19.1663 5.43743 15.0623 1.33337 9.99967 1.33337ZM7.99946 7.26344C7.91634 7.37447 7.91634 7.57333 7.91634 7.97107V13.0289C7.91634 13.4266 7.91634 13.6255 7.99946 13.7365C8.07189 13.8332 8.18277 13.8938 8.30332 13.9024C8.44166 13.9123 8.60894 13.8047 8.94351 13.5896L12.8773 11.0607C13.1677 10.8741 13.3128 10.7808 13.363 10.6621C13.4068 10.5585 13.4068 10.4415 13.363 10.3378C13.3128 10.2191 13.1677 10.1258 12.8773 9.93918L8.94351 7.41029C8.60894 7.19521 8.44166 7.08767 8.30332 7.09755C8.18277 7.10616 8.07189 7.16669 7.99946 7.26344Z" fill="white"/>
</svg>
