<svg width="32" height="33" viewBox="0 0 32 33" fill="none"
    xmlns="http://www.w3.org/2000/svg">
    <rect y="0.465332" width="32" height="32" rx="16" fill="white" fill-opacity="0.1"/>
    <g clip-path="url(#clip0_329_1693)">
        <path d="M22.6427 12.1083C22.2439 12.6916 21.7618 13.1886 21.1963 13.5993C21.2022 13.6827 21.2052 13.8077 21.2052 13.9743C21.2052 14.7481 21.0921 15.5205 20.8659 16.2913C20.6397 17.0621 20.296 17.8017 19.8347 18.51C19.3734 19.2184 18.8243 19.8449 18.1874 20.3895C17.5505 20.9342 16.7826 21.3687 15.8838 21.6931C14.985 22.0175 14.0237 22.1797 12.9999 22.1797C11.3868 22.1797 9.91057 21.7481 8.57129 20.885C8.77962 20.9089 9.01177 20.9208 9.26772 20.9208C10.607 20.9208 11.8005 20.51 12.8481 19.6886C12.2231 19.6767 11.6636 19.4847 11.1695 19.1127C10.6755 18.7407 10.3362 18.266 10.1516 17.6886C10.3481 17.7184 10.5296 17.7333 10.6963 17.7333C10.9522 17.7333 11.2052 17.7005 11.4552 17.635C10.7886 17.4981 10.2365 17.1663 9.79897 16.6395C9.36147 16.1127 9.14272 15.5011 9.14272 14.8047V14.769C9.54748 14.9952 9.982 15.1172 10.4463 15.135C10.0534 14.8731 9.74093 14.5309 9.50879 14.1083C9.27665 13.6856 9.16057 13.2273 9.16057 12.7333C9.16057 12.2094 9.29153 11.7243 9.55343 11.2779C10.2737 12.1648 11.1502 12.8746 12.1829 13.4074C13.2156 13.9401 14.3213 14.2362 15.4999 14.2958C15.4522 14.0696 15.4284 13.8493 15.4284 13.635C15.4284 12.8374 15.7097 12.1574 16.2722 11.5949C16.8347 11.0324 17.5147 10.7511 18.3124 10.7511C19.1457 10.7511 19.8481 11.0547 20.4195 11.6618C21.0683 11.5368 21.6784 11.3047 22.2499 10.9654C22.0296 11.6499 21.607 12.1797 20.982 12.5547C21.5356 12.4952 22.0891 12.3464 22.6427 12.1083Z" fill="white"/>
    </g>
    <defs>
        <clipPath id="clip0_329_1693">
            <rect width="14.86" height="16" fill="white" transform="matrix(1 0 0 -1 8.57031 24.4653)"/>
        </clipPath>
    </defs>
</svg>
