<svg width="32" height="33" viewBox="0 0 32 33" fill="none"
    xmlns="http://www.w3.org/2000/svg">
    <rect y="0.465332" width="32" height="32" rx="16" fill="white" fill-opacity="0.1"/>
    <g clip-path="url(#clip0_329_1696)">
        <path d="M14.3487 18.5368L18.6701 16.3046L14.3487 14.0457V18.5368ZM16.0004 10.8403C17.0004 10.8403 17.9662 10.8537 18.8978 10.8805C19.8293 10.9073 20.5124 10.9356 20.9469 10.9653L21.5987 11.001C21.6046 11.001 21.6552 11.0055 21.7504 11.0144C21.8457 11.0234 21.9141 11.0323 21.9558 11.0412C21.9975 11.0502 22.0674 11.0635 22.1656 11.0814C22.2638 11.0993 22.3487 11.1231 22.4201 11.1528C22.4915 11.1826 22.5749 11.2213 22.6701 11.2689C22.7653 11.3165 22.8576 11.3746 22.9469 11.443C23.0362 11.5115 23.1225 11.5903 23.2058 11.6796C23.2415 11.7153 23.2877 11.7704 23.3442 11.8448C23.4007 11.9192 23.4871 12.0933 23.6031 12.3671C23.7192 12.6409 23.7981 12.9415 23.8397 13.2689C23.8874 13.6499 23.9246 14.0561 23.9513 14.4877C23.9781 14.9192 23.9945 15.257 24.0004 15.501V15.8582V17.0725C24.0064 17.9356 23.9528 18.7987 23.8397 19.6618C23.7981 19.9891 23.7237 20.2853 23.6165 20.5502C23.5094 20.815 23.4141 20.9981 23.3308 21.0993L23.2058 21.251C23.1225 21.3403 23.0362 21.4192 22.9469 21.4877C22.8576 21.5561 22.7653 21.6127 22.6701 21.6573C22.5749 21.7019 22.4915 21.7391 22.4201 21.7689C22.3487 21.7987 22.2638 21.8225 22.1656 21.8403C22.0674 21.8582 21.996 21.8716 21.9513 21.8805C21.9067 21.8894 21.8382 21.8984 21.746 21.9073C21.6537 21.9162 21.6046 21.9207 21.5987 21.9207C20.1046 22.0338 18.2385 22.0903 16.0004 22.0903C14.7683 22.0784 13.6984 22.0591 12.7906 22.0323C11.8829 22.0055 11.2862 21.9832 11.0004 21.9653L10.5629 21.9296L10.2415 21.8939C10.0272 21.8641 9.86503 21.8344 9.75491 21.8046C9.64479 21.7749 9.49301 21.7124 9.29955 21.6171C9.1061 21.5219 8.93795 21.3999 8.79509 21.251C8.75938 21.2153 8.71324 21.1603 8.6567 21.0859C8.60015 21.0115 8.51384 20.8374 8.39777 20.5635C8.2817 20.2897 8.20283 19.9891 8.16116 19.6618C8.11354 19.2808 8.07634 18.8746 8.04955 18.443C8.02277 18.0115 8.0064 17.6737 8.00045 17.4296V17.0725V15.8582C7.99449 14.9951 8.04807 14.132 8.16116 13.2689C8.20283 12.9415 8.27723 12.6454 8.38438 12.3805C8.49152 12.1156 8.58676 11.9326 8.67009 11.8314L8.79509 11.6796C8.87842 11.5903 8.96473 11.5115 9.05402 11.443C9.1433 11.3746 9.23557 11.3165 9.3308 11.2689C9.42604 11.2213 9.50938 11.1826 9.5808 11.1528C9.65223 11.1231 9.73705 11.0993 9.83527 11.0814C9.93348 11.0635 10.0034 11.0502 10.0451 11.0412C10.0868 11.0323 10.1552 11.0234 10.2504 11.0144C10.3457 11.0055 10.3963 11.001 10.4022 11.001C11.8963 10.8939 13.7624 10.8403 16.0004 10.8403Z" fill="white"/>
    </g>
    <defs>
        <clipPath id="clip0_329_1696">
            <rect width="16" height="16" fill="white" transform="matrix(1 0 0 -1 8 24.4653)"/>
        </clipPath>
    </defs>
</svg>
